<?xml version="1.0" standalone="no"?><!DOCTYPE svg PUBLIC "-//W3C//DTD SVG 1.1//EN" "http://www.w3.org/Graphics/SVG/1.1/DTD/svg11.dtd"><svg height="1024" node-id="1" sillyvg="true" template-height="1024" template-width="1024" version="1.1" viewBox="0 0 1024 1024" width="1024" xmlns="http://www.w3.org/2000/svg" xmlns:xlink="http://www.w3.org/1999/xlink"><defs node-id="109"><linearGradient gradientUnits="objectBoundingBox" id="linearGradient-1" node-id="5" spreadMethod="pad" x1="0.5" x2="0.5" y1="0" y2="1"><stop offset="0" stop-color="#fbeae0"></stop><stop offset="1" stop-color="#faf7f8" stop-opacity="0"></stop></linearGradient><linearGradient gradientUnits="objectBoundingBox" id="linearGradient-2" node-id="8" spreadMethod="pad" x1="0.5" x2="0.5" y1="0" y2="1"><stop offset="0" stop-color="#fbeae0"></stop><stop offset="1" stop-color="#fff0ec" stop-opacity="0.005018541"></stop></linearGradient><linearGradient gradientUnits="objectBoundingBox" id="linearGradient-3" node-id="11" spreadMethod="pad" x1="0.5" x2="0.5" y1="0" y2="1"><stop offset="0" stop-color="#fbebe2"></stop><stop offset="1" stop-color="#fcf6f3" stop-opacity="0"></stop></linearGradient><linearGradient gradientUnits="objectBoundingBox" id="linearGradient-6" node-id="15" spreadMethod="pad" x1="0.5" x2="0.5" y1="0" y2="1"><stop offset="0" stop-color="#f0cdb7" stop-opacity="0"></stop><stop offset="1" stop-color="#d16019"></stop></linearGradient><linearGradient gradientUnits="objectBoundingBox" id="linearGradient-7" node-id="18" spreadMethod="pad" x1="0.5" x2="0.5" y1="0" y2="1"><stop offset="0" stop-color="#e17a39"></stop><stop offset="1" stop-color="#f1813a"></stop></linearGradient><linearGradient gradientUnits="objectBoundingBox" id="linearGradient-8" node-id="21" spreadMethod="pad" x1="0.5" x2="0.5" y1="0" y2="1"><stop offset="0" stop-color="#fab385"></stop><stop offset="1" stop-color="#f17f37"></stop></linearGradient><linearGradient gradientUnits="objectBoundingBox" id="linearGradient-9" node-id="24" spreadMethod="pad" x1="0.5" x2="0.5" y1="0" y2="1"><stop offset="0" stop-color="#f0cdb7" stop-opacity="0"></stop><stop offset="1" stop-color="#d16019"></stop></linearGradient><linearGradient gradientUnits="objectBoundingBox" id="linearGradient-10" node-id="27" spreadMethod="pad" x1="0.5" x2="0.5" y1="0" y2="1"><stop offset="0" stop-color="#e17a39"></stop><stop offset="1" stop-color="#f1813a"></stop></linearGradient><linearGradient gradientUnits="objectBoundingBox" id="linearGradient-11" node-id="30" spreadMethod="pad" x1="0.5" x2="0.5" y1="0" y2="1"><stop offset="0" stop-color="#fab385"></stop><stop offset="1" stop-color="#f17f37"></stop></linearGradient><linearGradient gradientUnits="objectBoundingBox" id="linearGradient-12" node-id="33" spreadMethod="pad" x1="0.5" x2="0.5" y1="0" y2="1"><stop offset="0" stop-color="#f0cdb7" stop-opacity="0"></stop><stop offset="1" stop-color="#d16019"></stop></linearGradient><linearGradient gradientUnits="objectBoundingBox" id="linearGradient-13" node-id="36" spreadMethod="pad" x1="0.5" x2="0.5" y1="0" y2="1"><stop offset="0" stop-color="#e17a39"></stop><stop offset="1" stop-color="#f1813a"></stop></linearGradient><linearGradient gradientUnits="objectBoundingBox" id="linearGradient-14" node-id="39" spreadMethod="pad" x1="0.5" x2="0.5" y1="0" y2="1"><stop offset="0" stop-color="#fab385"></stop><stop offset="1" stop-color="#f17f37"></stop></linearGradient><linearGradient gradientUnits="objectBoundingBox" id="linearGradient-15" node-id="42" spreadMethod="pad" x1="0.16313137" x2="0.3978011" y1="0.34318617" y2="0.45962784"><stop offset="0" stop-color="#fbd6c0" stop-opacity="0"></stop><stop offset="1" stop-color="#f1ba99"></stop></linearGradient><linearGradient gradientUnits="objectBoundingBox" id="linearGradient-16" node-id="45" spreadMethod="pad" x1="0.5" x2="0.5949379" y1="1" y2="0.20447212"><stop offset="0" stop-color="#f3aa7c"></stop><stop offset="1" stop-color="#facdb2"></stop></linearGradient><linearGradient gradientUnits="objectBoundingBox" id="linearGradient-17" node-id="48" spreadMethod="pad" x1="0.5" x2="0.5" y1="0.8170027" y2="0.26987582"><stop offset="0" stop-color="#f29b67"></stop><stop offset="1" stop-color="#f5b490"></stop></linearGradient><linearGradient gradientUnits="objectBoundingBox" id="linearGradient-18" node-id="51" spreadMethod="pad" x1="0.5" x2="0.5" y1="0" y2="1"><stop offset="0" stop-color="#fcd7c2"></stop><stop offset="1" stop-color="#ffc2a3"></stop></linearGradient><linearGradient gradientUnits="objectBoundingBox" id="linearGradient-19" node-id="54" spreadMethod="pad" x1="0.5" x2="0.6282616" y1="0.46572426" y2="0.5521502"><stop offset="0" stop-color="#fcd7c1"></stop><stop offset="1" stop-color="#fab98f"></stop></linearGradient><linearGradient gradientUnits="objectBoundingBox" id="linearGradient-20" node-id="57" spreadMethod="pad" x1="0.5" x2="0.5" y1="0" y2="1"><stop offset="0" stop-color="#fbcab1"></stop><stop offset="1" stop-color="#fccfb6"></stop></linearGradient><linearGradient gradientUnits="objectBoundingBox" id="linearGradient-21" node-id="60" spreadMethod="pad" x1="0.5" x2="0.5" y1="0" y2="1"><stop offset="0" stop-color="#e68344"></stop><stop offset="1" stop-color="#f3b791"></stop></linearGradient><clipPath id="mask-5" node-id="72"><path d="M 930.00 157.50 C 930.00 199.27 881.01 239.33 793.80 268.87 C 706.60 298.41 588.33 315.00 465.00 315.00 C 341.67 315.00 223.40 298.41 136.20 268.87 C 48.99 239.33 0.00 199.27 0.00 157.50 C 0.00 115.73 48.99 75.67 136.20 46.13 C 223.40 16.59 341.67 0.00 465.00 0.00 C 588.33 -0.00 706.60 16.59 793.80 46.13 C 881.01 75.67 930.00 115.73 930.00 157.50 Z" fill="#000000" fill-rule="evenodd" node-id="228" stroke="none" target-height="315" target-width="930" target-x="0" target-y="0"></path></clipPath><clipPath id="mask-5_3" node-id="72"><path d="M 983.00 759.50 L 982.75 764.63 L 982.01 769.73 L 980.79 774.84 L 979.06 779.97 L 976.80 785.14 L 973.98 790.37 L 970.26 796.12 L 965.82 801.92 L 960.61 807.79 L 954.56 813.74 L 947.60 819.77 L 940.69 825.14 L 933.02 830.54 L 924.53 835.96 L 915.17 841.41 L 904.87 846.88 L 892.27 852.97 L 878.45 859.00 L 863.32 864.98 L 846.80 870.87 L 830.47 876.14 L 813.25 881.18 L 795.10 885.98 L 775.98 890.54 L 757.05 894.59 L 737.41 898.36 L 717.05 901.84 L 695.95 905.01 L 675.00 907.75 L 653.56 910.16 L 631.61 912.23 L 609.14 913.95 L 586.78 915.27 L 564.14 916.22 L 541.22 916.80 L 518.00 917.00 L 494.78 916.80 L 471.86 916.22 L 449.22 915.27 L 426.86 913.95 L 404.39 912.23 L 382.44 910.16 L 361.00 907.75 L 340.05 905.01 L 318.95 901.84 L 298.59 898.36 L 278.95 894.59 L 260.02 890.54 L 240.90 885.98 L 222.75 881.18 L 205.53 876.14 L 189.20 870.87 L 172.68 864.98 L 157.55 859.00 L 143.73 852.97 L 131.13 846.88 L 120.83 841.41 L 111.47 835.96 L 102.98 830.54 L 95.31 825.14 L 88.40 819.77 L 81.44 813.74 L 75.39 807.79 L 70.18 801.92 L 65.74 796.12 L 62.02 790.37 L 59.20 785.14 L 56.94 779.97 L 55.21 774.84 L 53.99 769.73 L 53.25 764.63 L 53.00 759.50 L 53.25 754.37 L 53.99 749.27 L 55.21 744.16 L 56.94 739.03 L 59.20 733.86 L 62.02 728.63 L 65.74 722.88 L 70.18 717.08 L 75.39 711.21 L 81.44 705.26 L 88.40 699.23 L 95.31 693.86 L 102.98 688.46 L 111.47 683.04 L 120.83 677.59 L 131.13 672.12 L 143.73 666.03 L 157.55 660.00 L 172.68 654.02 L 189.20 648.13 L 205.53 642.86 L 222.75 637.82 L 240.90 633.02 L 260.02 628.46 L 278.95 624.41 L 298.59 620.64 L 318.95 617.16 L 340.05 613.99 L 361.00 611.25 L 382.44 608.84 L 404.39 606.77 L 426.86 605.05 L 449.22 603.73 L 471.86 602.78 L 494.78 602.20 L 518.00 602.00 L 541.22 602.20 L 564.14 602.78 L 586.78 603.73 L 609.14 605.05 L 631.61 606.77 L 653.56 608.84 L 675.00 611.25 L 695.95 613.99 L 717.05 617.16 L 737.41 620.64 L 757.05 624.41 L 775.98 628.46 L 795.10 633.02 L 813.25 637.82 L 830.47 642.86 L 846.80 648.13 L 863.32 654.02 L 878.45 660.00 L 892.27 666.03 L 904.87 672.12 L 915.17 677.59 L 924.53 683.04 L 933.02 688.46 L 940.69 693.86 L 947.60 699.23 L 954.56 705.26 L 960.61 711.21 L 965.82 717.08 L 970.26 722.88 L 973.98 728.63 L 976.80 733.86 L 979.06 739.03 L 980.79 744.16 L 982.01 749.27 L 982.75 754.37 L 983.00 759.50 Z" fill="#000000" fill-rule="evenodd" node-id="228" stroke="none" target-height="315" target-width="930" target-x="53" target-y="602"></path></clipPath><clipPath id="mask-5_4" node-id="72"><path d="M 1009.34 649.79 L 1011.44 645.11 L 1013.10 640.23 L 1014.33 635.12 L 1015.12 629.76 L 1015.46 624.13 L 1015.32 618.19 L 1014.61 611.38 L 1013.29 604.20 L 1011.31 596.60 L 1008.62 588.56 L 1005.16 580.02 L 1001.44 572.10 L 997.05 563.81 L 991.95 555.12 L 986.08 546.01 L 979.40 536.47 L 970.93 525.32 L 961.36 513.67 L 950.59 501.48 L 938.55 488.73 L 926.39 476.62 L 913.33 464.31 L 899.34 451.79 L 884.37 439.05 L 869.34 426.84 L 853.56 414.57 L 837.00 402.23 L 819.63 389.82 L 802.21 377.87 L 784.20 365.99 L 765.58 354.18 L 746.34 342.45 L 727.02 331.12 L 707.28 319.99 L 687.12 309.07 L 666.52 298.35 L 645.75 287.99 L 625.06 278.10 L 604.45 268.67 L 583.93 259.70 L 563.13 251.03 L 542.64 242.91 L 522.44 235.32 L 502.53 228.25 L 482.29 221.49 L 462.57 215.35 L 443.36 209.79 L 424.65 204.81 L 405.55 200.19 L 387.19 196.23 L 369.56 192.90 L 352.61 190.18 L 335.22 187.94 L 319.03 186.39 L 303.98 185.49 L 289.98 185.19 L 278.33 185.39 L 267.51 186.00 L 257.49 186.98 L 248.20 188.30 L 239.60 189.95 L 230.67 192.17 L 222.58 194.72 L 215.27 197.59 L 208.68 200.74 L 202.75 204.17 L 197.87 207.55 L 193.51 211.13 L 189.64 214.92 L 186.23 218.91 L 183.26 223.13 L 180.70 227.58 L 178.60 232.26 L 176.94 237.15 L 175.71 242.25 L 174.92 247.61 L 174.58 253.24 L 174.72 259.18 L 175.43 265.99 L 176.75 273.18 L 178.73 280.77 L 181.42 288.82 L 184.88 297.35 L 188.60 305.27 L 192.99 313.57 L 198.09 322.25 L 203.96 331.36 L 210.64 340.91 L 219.11 352.05 L 228.68 363.71 L 239.45 375.89 L 251.49 388.64 L 263.65 400.75 L 276.71 413.06 L 290.70 425.58 L 305.67 438.32 L 320.70 450.53 L 336.48 462.81 L 353.04 475.15 L 370.41 487.55 L 387.83 499.50 L 405.84 511.38 L 424.46 523.19 L 443.70 534.92 L 463.02 546.25 L 482.76 557.38 L 502.92 568.30 L 523.52 579.02 L 544.29 589.38 L 564.98 599.28 L 585.59 608.70 L 606.11 617.68 L 626.91 626.34 L 647.40 634.47 L 667.60 642.06 L 687.51 649.12 L 707.75 655.88 L 727.47 662.03 L 746.68 667.58 L 765.39 672.56 L 784.50 677.18 L 802.85 681.14 L 820.48 684.47 L 837.43 687.19 L 854.82 689.44 L 871.01 690.99 L 886.07 691.88 L 900.06 692.18 L 911.71 691.98 L 922.53 691.37 L 932.55 690.40 L 941.84 689.07 L 950.44 687.43 L 959.38 685.21 L 967.46 682.65 L 974.77 679.79 L 981.36 676.63 L 987.29 673.20 L 992.18 669.83 L 996.53 666.24 L 1000.40 662.46 L 1003.81 658.46 L 1006.79 654.25 L 1009.34 649.79 Z" fill="#000000" fill-rule="evenodd" node-id="228" stroke="none" target-height="506.99" target-width="840.88" target-x="174.58" target-y="185.19"></path></clipPath></defs><path d="M 0.00 0.00 L 1024.00 0.00 L 1024.00 1024.00 L 0.00 1024.00 Z" fill="#ffffff" fill-rule="evenodd" node-id="234" stroke="none" target-height="1024" target-width="1024" target-x="0" target-y="0"></path><g node-id="254"><g node-id="257"><g node-id="259"><path d="M 95.00 572.34 L 96.91 545.78 L 99.24 521.25 L 101.97 498.63 L 105.06 477.80 L 108.47 458.68 L 112.17 441.14 L 116.14 425.11 L 120.35 410.47 L 124.76 397.15 L 129.36 385.05 L 134.13 374.09 L 139.05 364.19 L 144.11 355.27 L 149.30 347.27 L 154.60 340.12 L 160.01 333.75 L 165.54 328.12 L 171.19 323.17 L 176.96 318.86 L 188.99 314.44 L 199.21 311.23 L 205.92 309.60 L 212.12 308.62 L 217.86 308.23 L 222.16 308.35 L 226.39 308.89 L 230.59 309.85 L 234.76 311.24 L 238.72 312.99 L 242.86 315.27 L 247.20 318.14 L 251.76 321.66 L 257.41 326.67 L 263.70 333.01 L 270.70 340.86 L 277.37 348.97 L 284.91 358.70 L 293.41 370.24 L 306.27 388.48 L 321.74 411.18 L 357.53 465.08 L 402.62 533.31" fill="url(#linearGradient-1)" fill-rule="evenodd" group-id="1,4,6" id="路径-160" node-id="68" stroke="none" target-height="264.11002" target-width="307.62" target-x="95" target-y="308.23"></path><path d="M 371.94 602.68 L 366.58 570.56 L 362.08 540.02 L 358.41 511.01 L 355.51 483.46 L 353.36 457.32 L 351.92 432.53 L 351.14 409.03 L 350.99 386.77 L 351.44 365.70 L 352.46 345.76 L 354.01 326.91 L 356.06 309.09 L 358.59 292.26 L 361.57 276.37 L 364.98 261.38 L 368.80 247.24 L 373.01 233.91 L 377.58 221.35 L 382.52 209.53 L 387.80 198.40 L 393.41 187.94 L 399.35 178.11 L 405.62 168.87 L 412.20 160.21 L 419.12 152.10 L 426.35 144.51 L 433.92 137.43 L 441.84 130.83 L 450.11 124.72 L 458.74 119.07 L 467.76 113.88 L 477.19 109.14 L 487.03 104.86 L 497.33 101.03 L 508.10 97.67 L 519.36 94.79 L 531.16 92.38 L 543.51 90.49 L 556.44 89.11 L 570.00 88.27 L 584.21 88.00 L 599.11 88.33 L 614.73 89.27 L 621.42 91.05 L 625.96 92.27 L 631.77 94.19 L 635.70 95.76 L 640.08 97.84 L 644.98 100.52 L 649.66 103.49 L 654.73 107.24 L 660.23 111.87 L 665.39 116.82 L 670.87 122.84 L 676.71 130.06 L 682.10 137.57 L 687.73 146.48 L 693.63 156.93 L 697.63 164.78 L 701.72 173.58 L 705.90 183.39 L 710.16 194.30 L 713.96 204.95 L 717.79 216.73 L 721.64 229.72 L 725.49 244.00 L 728.91 257.92 L 732.28 273.15 L 735.59 289.76 L 738.83 307.86 L 742.57 331.71 L 746.09 358.26 L 749.36 387.71 L 752.03 417.19 L 754.35 449.67 L 756.27 485.37 L 757.60 521.09 L 758.45 560.12 L 758.75 602.68" fill="url(#linearGradient-2)" fill-rule="evenodd" group-id="1,4,6" id="路径-161" node-id="69" stroke="none" target-height="514.68" target-width="407.76" target-x="350.99" target-y="88"></path><path d="M 709.37 568.09 L 709.71 540.43 L 710.60 514.92 L 711.99 491.43 L 713.84 469.85 L 716.12 450.07 L 718.78 431.97 L 721.78 415.45 L 725.09 400.42 L 728.68 386.76 L 732.51 374.39 L 736.57 363.21 L 740.83 353.15 L 745.27 344.11 L 749.87 336.02 L 754.62 328.82 L 759.52 322.42 L 764.55 316.77 L 769.72 311.83 L 775.03 307.53 L 780.50 303.84 L 786.14 300.72 L 791.96 298.16 L 798.00 296.14 L 804.27 294.65 L 810.81 293.70 L 817.65 293.29 L 824.83 293.46 L 832.38 294.23 L 840.33 295.63 L 848.74 297.73 L 857.63 300.56 L 867.05 304.19 L 870.31 306.18 L 873.65 308.92 L 877.09 312.51 L 880.65 317.10 L 884.32 322.85 L 888.12 329.92 L 892.03 338.51 L 896.05 348.82 L 900.17 361.07 L 904.36 375.49 L 908.61 392.33 L 912.90 411.85 L 917.21 434.32 L 921.52 460.02 L 925.79 489.26 L 930.00 522.35 L 934.13 559.60 L 938.14 601.37 L 942.00 648.00" fill="url(#linearGradient-3)" fill-rule="evenodd" group-id="1,4,6" id="路径-162" node-id="70" stroke="none" target-height="354.71" target-width="232.63" target-x="709.37" target-y="293.29"></path></g><g node-id="260"><g node-id="264"><path d="M 983.00 759.50 L 982.75 764.63 L 982.01 769.73 L 980.79 774.84 L 979.06 779.97 L 976.80 785.14 L 973.98 790.37 L 970.26 796.12 L 965.82 801.92 L 960.61 807.79 L 954.56 813.74 L 947.60 819.77 L 940.69 825.14 L 933.02 830.54 L 924.53 835.96 L 915.17 841.41 L 904.87 846.88 L 892.27 852.97 L 878.45 859.00 L 863.32 864.98 L 846.80 870.87 L 830.47 876.14 L 813.25 881.18 L 795.10 885.98 L 775.98 890.54 L 757.05 894.59 L 737.41 898.36 L 717.05 901.84 L 695.95 905.01 L 675.00 907.75 L 653.56 910.16 L 631.61 912.23 L 609.14 913.95 L 586.78 915.27 L 564.14 916.22 L 541.22 916.80 L 518.00 917.00 L 494.78 916.80 L 471.86 916.22 L 449.22 915.27 L 426.86 913.95 L 404.39 912.23 L 382.44 910.16 L 361.00 907.75 L 340.05 905.01 L 318.95 901.84 L 298.59 898.36 L 278.95 894.59 L 260.02 890.54 L 240.90 885.98 L 222.75 881.18 L 205.53 876.14 L 189.20 870.87 L 172.68 864.98 L 157.55 859.00 L 143.73 852.97 L 131.13 846.88 L 120.83 841.41 L 111.47 835.96 L 102.98 830.54 L 95.31 825.14 L 88.40 819.77 L 81.44 813.74 L 75.39 807.79 L 70.18 801.92 L 65.74 796.12 L 62.02 790.37 L 59.20 785.14 L 56.94 779.97 L 55.21 774.84 L 53.99 769.73 L 53.25 764.63 L 53.00 759.50 L 53.25 754.37 L 53.99 749.27 L 55.21 744.16 L 56.94 739.03 L 59.20 733.86 L 62.02 728.63 L 65.74 722.88 L 70.18 717.08 L 75.39 711.21 L 81.44 705.26 L 88.40 699.23 L 95.31 693.86 L 102.98 688.46 L 111.47 683.04 L 120.83 677.59 L 131.13 672.12 L 143.73 666.03 L 157.55 660.00 L 172.68 654.02 L 189.20 648.13 L 205.53 642.86 L 222.75 637.82 L 240.90 633.02 L 260.02 628.46 L 278.95 624.41 L 298.59 620.64 L 318.95 617.16 L 340.05 613.99 L 361.00 611.25 L 382.44 608.84 L 404.39 606.77 L 426.86 605.05 L 449.22 603.73 L 471.86 602.78 L 494.78 602.20 L 518.00 602.00 L 541.22 602.20 L 564.14 602.78 L 586.78 603.73 L 609.14 605.05 L 631.61 606.77 L 653.56 608.84 L 675.00 611.25 L 695.95 613.99 L 717.05 617.16 L 737.41 620.64 L 757.05 624.41 L 775.98 628.46 L 795.10 633.02 L 813.25 637.82 L 830.47 642.86 L 846.80 648.13 L 863.32 654.02 L 878.45 660.00 L 892.27 666.03 L 904.87 672.12 L 915.17 677.59 L 924.53 683.04 L 933.02 688.46 L 940.69 693.86 L 947.60 699.23 L 954.56 705.26 L 960.61 711.21 L 965.82 717.08 L 970.26 722.88 L 973.98 728.63 L 976.80 733.86 L 979.06 739.03 L 980.79 744.16 L 982.01 749.27 L 982.75 754.37 L 983.00 759.50 Z" fill="#fae3d4" fill-rule="evenodd" group-id="1,4,7,11" node-id="245" stroke="none" target-height="315" target-width="930" target-x="53" target-y="602"></path></g><g node-id="265"><g clip-path="url(#mask-5_3)" group-id="1,4,7,12" node-id="248"><path d="M 301.58 883.86 L 302.43 874.44 L 303.67 866.48 L 305.24 859.80 L 307.08 854.25 L 309.15 849.68 L 311.41 845.95 L 313.85 842.95 L 316.47 840.58 L 319.27 838.77 L 322.30 837.48 L 325.59 836.69 L 329.22 836.42 L 333.24 836.71 L 337.74 837.64 L 342.78 839.31 L 348.45 841.83 L 354.84 845.35 L 362.02 850.02 L 370.10 856.01 L 379.17 863.52 L 389.32 872.73 L 400.66 883.86 L 401.01 884.20 L 401.72 884.18 L 403.16 883.52 L 408.75 879.78 L 412.38 877.30 L 416.72 874.54 L 421.35 871.96 L 426.36 869.68 L 429.84 868.45 L 433.37 867.58 L 436.96 867.08 L 440.56 867.02 L 444.16 867.53 L 447.80 868.62 L 450.35 869.80 L 452.92 871.42 L 455.53 873.53 L 458.18 876.20 L 460.45 879.01 L 462.74 882.46 L 465.05 886.66 L 467.37 891.70 L 469.90 898.44 L 472.35 906.79 L 474.68 917.00 L 464.96 919.60 L 454.76 921.70 L 444.05 923.30 L 432.81 924.37 L 421.00 924.90 L 408.59 924.84 L 395.53 924.17 L 381.80 922.87 L 367.35 920.88 L 352.14 918.18 L 336.14 914.72 L 319.30 910.45 L 301.58 905.32 L 301.58 883.86 Z" fill="#f7ceb1" fill-rule="evenodd" group-id="1,4,7,12" id="路径-163" node-id="75" stroke="none" target-height="88.48004" target-width="173.1" target-x="301.58" target-y="836.42"></path></g></g><g clip-path="url(#mask-5_4)" group-id="1,4,7,13" node-id="252"><path d="M 768.36 627.01 L 767.33 633.55 L 767.00 639.27 L 767.27 644.27 L 768.06 648.65 L 769.32 652.49 L 771.04 655.87 L 773.20 658.85 L 775.84 661.47 L 779.01 663.76 L 782.77 665.70 L 787.21 667.29 L 792.44 668.49 L 798.58 669.22 L 805.75 669.43 L 814.10 669.01 L 823.77 667.88 L 834.93 665.90 L 847.74 662.96 L 862.38 658.93 L 862.82 658.79 L 863.40 659.12 L 864.30 660.37 L 867.33 666.23 L 869.29 670.09 L 871.76 674.55 L 874.57 678.98 L 877.89 683.36 L 880.37 686.08 L 883.08 688.52 L 886.03 690.69 L 889.21 692.47 L 892.68 693.77 L 896.48 694.59 L 899.35 694.81 L 902.45 694.66 L 905.84 694.10 L 909.54 693.09 L 912.98 691.77 L 916.76 689.91 L 920.92 687.42 L 925.51 684.21 L 925.56 683.94 L 925.03 683.28 L 923.02 681.79 L 919.65 679.72 L 914.21 676.71 L 908.08 673.56 L 900.33 669.80 L 892.06 666.00 L 882.63 661.88 L 872.85 657.84 L 862.38 653.77 L 839.92 646.08 L 821.44 640.21 L 804.16 635.18 L 790.46 631.61 L 777.83 628.76 L 768.36 627.01 Z" fill="#f7ceb1" fill-rule="evenodd" group-id="1,4,7,13" id="路径-163备份" node-id="76" stroke="none" target-height="67.79999" target-width="158.56" target-x="767" target-y="627.01"></path></g></g></g><g node-id="258"><g node-id="261"><g node-id="267"><path d="M 186.17 772.24 L 189.83 767.73 L 213.89 787.22 L 210.24 791.73 Z" fill="url(#linearGradient-6)" fill-rule="evenodd" group-id="1,5,8,14" id="矩形备份-23" node-id="79" stroke="none" target-height="24" target-width="27.720001" target-x="186.17" target-y="767.73"></path></g><path d="M 209.00 761.00 L 215.00 761.00 L 215.00 792.00 L 209.00 792.00 Z" fill="url(#linearGradient-7)" fill-rule="evenodd" group-id="1,5,8" id="矩形" node-id="80" stroke="none" target-height="31" target-width="6" target-x="209" target-y="761"></path><path d="M 211.23 689.00 L 214.73 689.33 L 217.94 690.20 L 220.91 691.62 L 223.60 693.52 L 225.88 695.80 L 227.78 698.49 L 229.20 701.46 L 230.07 704.67 L 230.40 708.17 L 230.24 710.62 L 229.80 712.94 L 229.09 715.14 L 227.54 718.24 L 225.49 720.97 L 228.21 723.28 L 230.50 725.94 L 232.41 728.98 L 233.81 732.27 L 234.68 735.80 L 235.00 739.60 L 234.77 742.78 L 234.17 745.76 L 233.20 748.56 L 231.86 751.21 L 230.19 753.68 L 228.26 755.86 L 226.08 757.79 L 223.61 759.46 L 220.96 760.80 L 218.16 761.77 L 215.18 762.37 L 212.00 762.60 L 208.82 762.37 L 205.84 761.77 L 203.04 760.80 L 200.39 759.46 L 197.92 757.79 L 195.74 755.86 L 193.81 753.68 L 192.14 751.21 L 190.80 748.56 L 189.83 745.76 L 189.23 742.78 L 189.00 739.60 L 189.29 735.99 L 190.07 732.64 L 191.34 729.48 L 193.06 726.55 L 195.15 723.95 L 197.62 721.65 L 196.01 719.82 L 194.66 717.80 L 193.55 715.58 L 192.74 713.25 L 192.25 710.78 L 192.07 708.17 L 192.39 704.67 L 193.27 701.46 L 194.68 698.49 L 196.59 695.80 L 198.87 693.52 L 201.56 691.62 L 204.53 690.20 L 207.73 689.33 L 211.23 689.00 Z" fill="url(#linearGradient-8)" fill-rule="evenodd" group-id="1,5,8" id="形状结合" node-id="81" stroke="none" target-height="73.599976" target-width="46" target-x="189" target-y="689"></path></g><g node-id="262"><g node-id="268"><path d="M 773.17 640.08 L 775.85 636.77 L 793.51 651.07 L 790.83 654.38 Z" fill="url(#linearGradient-9)" fill-rule="evenodd" group-id="1,5,9,15" id="矩形备份-23" node-id="83" stroke="none" target-height="17.609985" target-width="20.340027" target-x="773.17" target-y="636.77"></path></g><path d="M 789.92 631.83 L 794.32 631.83 L 794.32 654.58 L 789.92 654.58 Z" fill="url(#linearGradient-10)" fill-rule="evenodd" group-id="1,5,9" id="矩形" node-id="84" stroke="none" target-height="22.75" target-width="4.4000244" target-x="789.92" target-y="631.83"></path><path d="M 791.56 579.00 L 794.13 579.24 L 796.48 579.88 L 798.66 580.92 L 800.63 582.32 L 802.31 583.99 L 803.70 585.97 L 804.74 588.14 L 805.39 590.50 L 805.62 593.06 L 805.37 595.72 L 804.66 598.18 L 803.53 600.45 L 802.02 602.46 L 804.02 604.15 L 805.70 606.11 L 807.10 608.34 L 808.13 610.75 L 808.77 613.34 L 809.00 616.13 L 808.71 619.21 L 807.94 622.03 L 806.70 624.65 L 805.02 627.01 L 803.01 629.02 L 800.64 630.70 L 798.03 631.95 L 795.20 632.72 L 792.12 633.00 L 789.04 632.72 L 786.22 631.95 L 783.61 630.70 L 781.24 629.02 L 779.23 627.01 L 777.55 624.65 L 776.30 622.03 L 775.53 619.21 L 775.25 616.13 L 775.46 613.48 L 776.03 611.02 L 776.96 608.71 L 778.23 606.55 L 779.76 604.64 L 781.57 602.96 L 779.87 600.89 L 778.59 598.51 L 777.78 595.90 L 777.50 593.06 L 777.74 590.50 L 778.38 588.14 L 779.42 585.97 L 780.82 583.99 L 782.49 582.32 L 784.46 580.92 L 786.64 579.88 L 788.99 579.24 L 791.56 579.00 Z" fill="url(#linearGradient-11)" fill-rule="evenodd" group-id="1,5,9" id="形状结合" node-id="85" stroke="none" target-height="54" target-width="33.75" target-x="775.25" target-y="579"></path></g><g node-id="263"><g node-id="269"><path d="M 264.17 632.85 L 266.41 630.09 L 281.11 642.00 L 278.87 644.76 Z" fill="url(#linearGradient-12)" fill-rule="evenodd" group-id="1,5,10,16" id="矩形备份-23" node-id="87" stroke="none" target-height="14.669983" target-width="16.939972" target-x="264.17" target-y="630.09"></path></g><path d="M 278.12 625.98 L 281.78 625.98 L 281.78 644.92 L 278.12 644.92 Z" fill="url(#linearGradient-13)" fill-rule="evenodd" group-id="1,5,10" id="矩形" node-id="88" stroke="none" target-height="18.940002" target-width="3.6600037" target-x="278.12" target-y="625.98"></path><path d="M 279.48 582.00 L 281.62 582.20 L 283.58 582.73 L 285.39 583.60 L 287.03 584.76 L 288.43 586.16 L 289.59 587.80 L 290.46 589.61 L 290.99 591.57 L 291.19 593.71 L 290.98 595.92 L 290.39 597.97 L 289.44 599.86 L 288.19 601.53 L 289.85 602.94 L 291.25 604.57 L 292.42 606.42 L 293.28 608.43 L 293.80 610.59 L 294.00 612.91 L 293.76 615.47 L 293.12 617.82 L 292.08 620.00 L 290.69 621.97 L 289.01 623.65 L 287.04 625.04 L 284.86 626.08 L 282.51 626.72 L 279.95 626.96 L 277.39 626.72 L 275.04 626.08 L 272.86 625.04 L 270.89 623.65 L 269.21 621.97 L 267.82 620.00 L 266.78 617.82 L 266.14 615.47 L 265.90 612.91 L 266.07 610.71 L 266.55 608.66 L 267.33 606.73 L 268.38 604.94 L 269.65 603.35 L 271.16 601.95 L 269.75 600.22 L 268.68 598.24 L 268.01 596.07 L 267.77 593.71 L 267.97 591.57 L 268.51 589.61 L 269.37 587.80 L 270.54 586.16 L 271.93 584.76 L 273.57 583.60 L 275.39 582.73 L 277.34 582.20 L 279.48 582.00 Z" fill="url(#linearGradient-14)" fill-rule="evenodd" group-id="1,5,10" id="形状结合" node-id="89" stroke="none" target-height="44.960022" target-width="28.100006" target-x="265.9" target-y="582"></path></g></g></g><path d="M 346.93 735.07 L 248.81 634.91 L 350.97 614.86 L 536.84 761.00 Z" fill="url(#linearGradient-15)" fill-rule="evenodd" id="路径-167备份" node-id="90" stroke="none" target-height="146.14001" target-width="288.03003" target-x="248.81" target-y="614.86"></path><path d="M 698.37 732.13 L 511.39 703.14 L 511.39 506.00 L 698.37 534.99 Z" fill="#ea8d52" fill-rule="nonzero" group-id="2" id="路径" node-id="92" stroke="none" target-height="226.13" target-width="186.97998" target-x="511.39" target-y="506"></path><path d="M 347.90 735.07 L 511.39 703.14 L 511.39 506.00 L 347.90 537.51 Z" fill="#dc6d23" fill-rule="nonzero" group-id="2" id="路径" node-id="93" stroke="none" target-height="229.07" target-width="163.49002" target-x="347.9" target-y="506"></path><path d="M 536.84 763.46 L 346.93 734.46 L 346.93 537.33 L 535.86 565.87 Z" fill="url(#linearGradient-16)" fill-rule="nonzero" group-id="2" id="路径" node-id="94" stroke="none" target-height="226.13" target-width="189.91003" target-x="346.93" target-y="537.33"></path><path d="M 535.86 565.87 L 480.69 619.07 L 346.93 597.57 L 351.58 537.33 Z" fill="#e88e53" fill-rule="evenodd" group-id="2" id="路径-173" node-id="95" stroke="none" target-height="81.73999" target-width="188.93" target-x="346.93" target-y="537.33"></path><path d="M 483.50 613.68 L 297.00 584.49 L 347.40 536.35 L 535.86 565.87 Z" fill="url(#linearGradient-17)" fill-rule="nonzero" group-id="2" id="路径" node-id="96" stroke="none" target-height="77.33002" target-width="238.85999" target-x="297" target-y="536.35"></path><path d="M 535.86 565.87 L 535.86 763.46 L 698.37 732.13 L 698.37 535.37 Z" fill="url(#linearGradient-18)" fill-rule="evenodd" group-id="2" id="路径-44" node-id="97" stroke="none" target-height="228.09003" target-width="162.51001" target-x="535.86" target-y="535.37"></path><path d="M 536.84 565.54 L 581.74 624.52 L 698.37 600.29 L 688.83 537.33 Z" fill="#ea9666" fill-rule="evenodd" group-id="2" id="路径-174" node-id="98" stroke="none" target-height="87.19" target-width="161.52997" target-x="536.84" target-y="537.33"></path><path d="M 586.37 613.68 L 749.27 583.24 L 698.37 535.37 L 536.84 565.54 L 586.37 613.68 Z" fill="url(#linearGradient-19)" fill-rule="evenodd" group-id="2" id="路径-43" node-id="99" stroke="none" target-height="78.31" target-width="212.43" target-x="536.84" target-y="535.37"></path><path d="M 533.22 536.98 C 540.12 504.58 554.91 479.49 577.61 461.71 C 602.08 463.71 597.19 491.58 580.01 492.68 C 569.63 489.79 547.70 467.65 584.37 438.23 C 608.82 418.61 622.24 408.03 624.63 406.48" fill="none" id="路径-175" node-id="100" stroke="#ea8d52" stroke-dasharray="3 3" stroke-linecap="butt" stroke-width="3" target-height="130.49997" target-width="91.410034" target-x="533.22" target-y="406.48"></path><path d="M 618.00 380.00 L 750.00 380.00 L 750.00 437.00 L 618.00 433.54 Z" fill="#e37732" fill-rule="evenodd" id="矩形" node-id="101" stroke="none" target-height="57" target-width="132" target-x="618" target-y="380"></path><path d="M 625.00 380.00 L 757.00 380.00 L 757.00 437.00 L 625.00 437.00 Z" fill="url(#linearGradient-20)" fill-rule="evenodd" id="矩形" node-id="102" stroke="none" target-height="57" target-width="132" target-x="625" target-y="380"></path><path d="M 666.00 409.00 L 665.80 411.19 L 665.28 413.20 L 664.43 415.06 L 663.28 416.75 L 661.91 418.17 L 660.30 419.36 L 658.52 420.25 L 656.60 420.80 L 654.50 421.00 L 652.40 420.80 L 650.48 420.25 L 648.70 419.36 L 647.09 418.17 L 645.72 416.75 L 644.57 415.06 L 643.72 413.20 L 643.20 411.19 L 643.00 409.00 L 643.20 406.81 L 643.72 404.80 L 644.57 402.94 L 645.72 401.25 L 647.09 399.83 L 648.70 398.64 L 650.48 397.75 L 652.40 397.20 L 654.50 397.00 L 656.60 397.20 L 658.52 397.75 L 660.30 398.64 L 661.91 399.83 L 663.28 401.25 L 664.43 402.94 L 665.28 404.80 L 665.80 406.81 L 666.00 409.00 Z" fill="url(#linearGradient-21)" fill-rule="evenodd" group-id="3" id="椭圆形" node-id="104" stroke="none" target-height="24" target-width="23" target-x="643" target-y="397"></path><path d="M 703.00 409.00 L 702.80 411.19 L 702.28 413.20 L 701.43 415.06 L 700.28 416.75 L 698.91 418.17 L 697.30 419.36 L 695.52 420.25 L 693.60 420.80 L 691.50 421.00 L 689.40 420.80 L 687.48 420.25 L 685.70 419.36 L 684.09 418.17 L 682.72 416.75 L 681.57 415.06 L 680.72 413.20 L 680.20 411.19 L 680.00 409.00 L 680.20 406.81 L 680.72 404.80 L 681.57 402.94 L 682.72 401.25 L 684.09 399.83 L 685.70 398.64 L 687.48 397.75 L 689.40 397.20 L 691.50 397.00 L 693.60 397.20 L 695.52 397.75 L 697.30 398.64 L 698.91 399.83 L 700.28 401.25 L 701.43 402.94 L 702.28 404.80 L 702.80 406.81 L 703.00 409.00 Z" fill="url(#linearGradient-21)" fill-rule="evenodd" group-id="3" id="椭圆形备份" node-id="105" stroke="none" target-height="24" target-width="23" target-x="680" target-y="397"></path><path d="M 740.00 409.00 L 739.80 411.19 L 739.28 413.20 L 738.43 415.06 L 737.28 416.75 L 735.91 418.17 L 734.30 419.36 L 732.52 420.25 L 730.60 420.80 L 728.50 421.00 L 726.40 420.80 L 724.48 420.25 L 722.70 419.36 L 721.09 418.17 L 719.72 416.75 L 718.57 415.06 L 717.72 413.20 L 717.20 411.19 L 717.00 409.00 L 717.20 406.81 L 717.72 404.80 L 718.57 402.94 L 719.72 401.25 L 721.09 399.83 L 722.70 398.64 L 724.48 397.75 L 726.40 397.20 L 728.50 397.00 L 730.60 397.20 L 732.52 397.75 L 734.30 398.64 L 735.91 399.83 L 737.28 401.25 L 738.43 402.94 L 739.28 404.80 L 739.80 406.81 L 740.00 409.00 Z" fill="url(#linearGradient-21)" fill-rule="evenodd" group-id="3" id="椭圆形备份-2" node-id="106" stroke="none" target-height="24" target-width="23" target-x="717" target-y="397"></path><path d="M 618.00 433.54 L 625.00 437.00 L 625.00 433.54 Z" fill="#e37732" fill-rule="evenodd" id="路径-176" node-id="107" stroke="none" target-height="3.4599915" target-width="7" target-x="618" target-y="433.54"></path></svg>