<?xml version="1.0" standalone="no"?><!DOCTYPE svg PUBLIC "-//W3C//DTD SVG 1.1//EN" "http://www.w3.org/Graphics/SVG/1.1/DTD/svg11.dtd"><svg height="1024" node-id="1" sillyvg="true" template-height="1024" template-width="1024" version="1.1" viewBox="0 0 1024 1024" width="1024" xmlns="http://www.w3.org/2000/svg" xmlns:xlink="http://www.w3.org/1999/xlink"><defs node-id="107"><linearGradient gradientUnits="objectBoundingBox" id="linearGradient-1" node-id="5" spreadMethod="pad" x1="0.5" x2="0.5" y1="0" y2="1"><stop offset="0" stop-color="#fbeae0"></stop><stop offset="1" stop-color="#faf7f8" stop-opacity="0"></stop></linearGradient><linearGradient gradientUnits="objectBoundingBox" id="linearGradient-2" node-id="8" spreadMethod="pad" x1="0.5" x2="0.5" y1="0" y2="1"><stop offset="0" stop-color="#fbeae0"></stop><stop offset="1" stop-color="#fff0ec" stop-opacity="0.005018541"></stop></linearGradient><linearGradient gradientUnits="objectBoundingBox" id="linearGradient-3" node-id="11" spreadMethod="pad" x1="0.5" x2="0.5" y1="0" y2="1"><stop offset="0" stop-color="#fbebe2"></stop><stop offset="1" stop-color="#fcf6f3" stop-opacity="0"></stop></linearGradient><linearGradient gradientUnits="objectBoundingBox" id="linearGradient-6" node-id="15" spreadMethod="pad" x1="0.5" x2="0.5" y1="0" y2="1"><stop offset="0" stop-color="#f0cdb7" stop-opacity="0.4709925"></stop><stop offset="1" stop-color="#d16019"></stop></linearGradient><linearGradient gradientUnits="objectBoundingBox" id="linearGradient-7" node-id="18" spreadMethod="pad" x1="0.5" x2="0.5" y1="0" y2="1"><stop offset="0" stop-color="#e17a39"></stop><stop offset="1" stop-color="#f1813a"></stop></linearGradient><linearGradient gradientUnits="objectBoundingBox" id="linearGradient-8" node-id="21" spreadMethod="pad" x1="0.5" x2="0.5" y1="0" y2="1"><stop offset="0" stop-color="#fbb893"></stop><stop offset="1" stop-color="#e17937"></stop></linearGradient><linearGradient gradientUnits="objectBoundingBox" id="linearGradient-9" node-id="24" spreadMethod="pad" x1="0.5" x2="0.5" y1="0" y2="1"><stop offset="0" stop-color="#f0cdb7" stop-opacity="0.4709925"></stop><stop offset="1" stop-color="#d16019"></stop></linearGradient><linearGradient gradientUnits="objectBoundingBox" id="linearGradient-10" node-id="27" spreadMethod="pad" x1="0.5" x2="0.5" y1="0" y2="1"><stop offset="0" stop-color="#e17a39"></stop><stop offset="1" stop-color="#f1813a"></stop></linearGradient><linearGradient gradientUnits="objectBoundingBox" id="linearGradient-11" node-id="30" spreadMethod="pad" x1="0.5" x2="0.5" y1="0" y2="1"><stop offset="0" stop-color="#fbb893"></stop><stop offset="1" stop-color="#e17937"></stop></linearGradient><linearGradient gradientUnits="objectBoundingBox" id="linearGradient-12" node-id="33" spreadMethod="pad" x1="0.5" x2="0.5" y1="0" y2="1"><stop offset="0" stop-color="#f0cdb7" stop-opacity="0.4709925"></stop><stop offset="1" stop-color="#d16019"></stop></linearGradient><linearGradient gradientUnits="objectBoundingBox" id="linearGradient-13" node-id="36" spreadMethod="pad" x1="0.5" x2="0.5" y1="0" y2="1"><stop offset="0" stop-color="#e17a39"></stop><stop offset="1" stop-color="#f1813a"></stop></linearGradient><linearGradient gradientUnits="objectBoundingBox" id="linearGradient-14" node-id="39" spreadMethod="pad" x1="0.5" x2="0.5" y1="0" y2="1"><stop offset="0" stop-color="#fbb893"></stop><stop offset="1" stop-color="#e17937"></stop></linearGradient><linearGradient gradientUnits="objectBoundingBox" id="linearGradient-15" node-id="42" spreadMethod="pad" x1="0.2291064" x2="0.5" y1="0.4177506" y2="0.5822494"><stop offset="0" stop-color="#fbd6c0" stop-opacity="0.37208056"></stop><stop offset="1" stop-color="#f1ba99"></stop></linearGradient><linearGradient gradientUnits="objectBoundingBox" id="linearGradient-16" node-id="45" spreadMethod="pad" x1="0.5" x2="0.5" y1="1" y2="0"><stop offset="0" stop-color="#f4be9c"></stop><stop offset="1" stop-color="#fcdcc6"></stop></linearGradient><linearGradient gradientUnits="objectBoundingBox" id="linearGradient-17" node-id="48" spreadMethod="pad" x1="0.5" x2="0.5" y1="0" y2="1"><stop offset="0" stop-color="#fcddc9"></stop><stop offset="1" stop-color="#fab98f"></stop></linearGradient><linearGradient gradientUnits="objectBoundingBox" id="linearGradient-18" node-id="51" spreadMethod="pad" x1="0.5" x2="0.5" y1="0" y2="1"><stop offset="0" stop-color="#f09051"></stop><stop offset="1" stop-color="#f0ac80"></stop></linearGradient><linearGradient gradientUnits="objectBoundingBox" id="linearGradient-19" node-id="54" spreadMethod="pad" x1="0.5" x2="0.5" y1="0" y2="1"><stop offset="0" stop-color="#e26f2f"></stop><stop offset="1" stop-color="#ea8e57"></stop></linearGradient><linearGradient gradientUnits="objectBoundingBox" id="linearGradient-20" node-id="57" spreadMethod="pad" x1="0.5" x2="0.5" y1="0" y2="1"><stop offset="0" stop-color="#d75702"></stop><stop offset="1" stop-color="#e26d20"></stop></linearGradient><linearGradient gradientUnits="objectBoundingBox" id="linearGradient-21" node-id="60" spreadMethod="pad" x1="0.5" x2="0.5" y1="0" y2="1"><stop offset="0" stop-color="#fcd9c3"></stop><stop offset="1" stop-color="#fbc8af"></stop></linearGradient><linearGradient gradientUnits="objectBoundingBox" id="linearGradient-22" node-id="63" spreadMethod="pad" x1="0.5" x2="0.5" y1="0" y2="1"><stop offset="0" stop-color="#dc6110"></stop><stop offset="1" stop-color="#f8b28a"></stop></linearGradient><clipPath id="mask-5" node-id="75"><path d="M 930.00 157.50 C 930.00 199.27 881.01 239.33 793.80 268.87 C 706.60 298.41 588.33 315.00 465.00 315.00 C 341.67 315.00 223.40 298.41 136.20 268.87 C 48.99 239.33 0.00 199.27 0.00 157.50 C 0.00 115.73 48.99 75.67 136.20 46.13 C 223.40 16.59 341.67 0.00 465.00 0.00 C 588.33 -0.00 706.60 16.59 793.80 46.13 C 881.01 75.67 930.00 115.73 930.00 157.50 Z" fill="#000000" fill-rule="evenodd" node-id="232" stroke="none" target-height="315" target-width="930" target-x="0" target-y="0"></path></clipPath><clipPath id="mask-5_3" node-id="75"><path d="M 983.00 759.50 L 982.75 764.63 L 982.01 769.73 L 980.79 774.84 L 979.06 779.97 L 976.80 785.14 L 973.98 790.37 L 970.26 796.12 L 965.82 801.92 L 960.61 807.79 L 954.56 813.74 L 947.60 819.77 L 940.69 825.14 L 933.02 830.54 L 924.53 835.96 L 915.17 841.41 L 904.87 846.88 L 892.27 852.97 L 878.45 859.00 L 863.32 864.98 L 846.80 870.87 L 830.47 876.14 L 813.25 881.18 L 795.10 885.98 L 775.98 890.54 L 757.05 894.59 L 737.41 898.36 L 717.05 901.84 L 695.95 905.01 L 675.00 907.75 L 653.56 910.16 L 631.61 912.23 L 609.14 913.95 L 586.78 915.27 L 564.14 916.22 L 541.22 916.80 L 518.00 917.00 L 494.78 916.80 L 471.86 916.22 L 449.22 915.27 L 426.86 913.95 L 404.39 912.23 L 382.44 910.16 L 361.00 907.75 L 340.05 905.01 L 318.95 901.84 L 298.59 898.36 L 278.95 894.59 L 260.02 890.54 L 240.90 885.98 L 222.75 881.18 L 205.53 876.14 L 189.20 870.87 L 172.68 864.98 L 157.55 859.00 L 143.73 852.97 L 131.13 846.88 L 120.83 841.41 L 111.47 835.96 L 102.98 830.54 L 95.31 825.14 L 88.40 819.77 L 81.44 813.74 L 75.39 807.79 L 70.18 801.92 L 65.74 796.12 L 62.02 790.37 L 59.20 785.14 L 56.94 779.97 L 55.21 774.84 L 53.99 769.73 L 53.25 764.63 L 53.00 759.50 L 53.25 754.37 L 53.99 749.27 L 55.21 744.16 L 56.94 739.03 L 59.20 733.86 L 62.02 728.63 L 65.74 722.88 L 70.18 717.08 L 75.39 711.21 L 81.44 705.26 L 88.40 699.23 L 95.31 693.86 L 102.98 688.46 L 111.47 683.04 L 120.83 677.59 L 131.13 672.12 L 143.73 666.03 L 157.55 660.00 L 172.68 654.02 L 189.20 648.13 L 205.53 642.86 L 222.75 637.82 L 240.90 633.02 L 260.02 628.46 L 278.95 624.41 L 298.59 620.64 L 318.95 617.16 L 340.05 613.99 L 361.00 611.25 L 382.44 608.84 L 404.39 606.77 L 426.86 605.05 L 449.22 603.73 L 471.86 602.78 L 494.78 602.20 L 518.00 602.00 L 541.22 602.20 L 564.14 602.78 L 586.78 603.73 L 609.14 605.05 L 631.61 606.77 L 653.56 608.84 L 675.00 611.25 L 695.95 613.99 L 717.05 617.16 L 737.41 620.64 L 757.05 624.41 L 775.98 628.46 L 795.10 633.02 L 813.25 637.82 L 830.47 642.86 L 846.80 648.13 L 863.32 654.02 L 878.45 660.00 L 892.27 666.03 L 904.87 672.12 L 915.17 677.59 L 924.53 683.04 L 933.02 688.46 L 940.69 693.86 L 947.60 699.23 L 954.56 705.26 L 960.61 711.21 L 965.82 717.08 L 970.26 722.88 L 973.98 728.63 L 976.80 733.86 L 979.06 739.03 L 980.79 744.16 L 982.01 749.27 L 982.75 754.37 L 983.00 759.50 Z" fill="#000000" fill-rule="evenodd" node-id="232" stroke="none" target-height="315" target-width="930" target-x="53" target-y="602"></path></clipPath><clipPath id="mask-5_4" node-id="75"><path d="M 1009.34 649.79 L 1011.44 645.11 L 1013.10 640.23 L 1014.33 635.12 L 1015.12 629.76 L 1015.46 624.13 L 1015.32 618.19 L 1014.61 611.38 L 1013.29 604.20 L 1011.31 596.60 L 1008.62 588.56 L 1005.16 580.02 L 1001.44 572.10 L 997.05 563.81 L 991.95 555.12 L 986.08 546.01 L 979.40 536.47 L 970.93 525.32 L 961.36 513.67 L 950.59 501.48 L 938.55 488.73 L 926.39 476.62 L 913.33 464.31 L 899.34 451.79 L 884.37 439.05 L 869.34 426.84 L 853.56 414.57 L 837.00 402.23 L 819.63 389.82 L 802.21 377.87 L 784.20 365.99 L 765.58 354.18 L 746.34 342.45 L 727.02 331.12 L 707.28 319.99 L 687.12 309.07 L 666.52 298.35 L 645.75 287.99 L 625.06 278.10 L 604.45 268.67 L 583.93 259.70 L 563.13 251.03 L 542.64 242.91 L 522.44 235.32 L 502.53 228.25 L 482.29 221.49 L 462.57 215.35 L 443.36 209.79 L 424.65 204.81 L 405.55 200.19 L 387.19 196.23 L 369.56 192.90 L 352.61 190.18 L 335.22 187.94 L 319.03 186.39 L 303.98 185.49 L 289.98 185.19 L 278.33 185.39 L 267.51 186.00 L 257.49 186.98 L 248.20 188.30 L 239.60 189.95 L 230.67 192.17 L 222.58 194.72 L 215.27 197.59 L 208.68 200.74 L 202.75 204.17 L 197.87 207.55 L 193.51 211.13 L 189.64 214.92 L 186.23 218.91 L 183.26 223.13 L 180.70 227.58 L 178.60 232.26 L 176.94 237.15 L 175.71 242.25 L 174.92 247.61 L 174.58 253.24 L 174.72 259.18 L 175.43 265.99 L 176.75 273.18 L 178.73 280.77 L 181.42 288.82 L 184.88 297.35 L 188.60 305.27 L 192.99 313.57 L 198.09 322.25 L 203.96 331.36 L 210.64 340.91 L 219.11 352.05 L 228.68 363.71 L 239.45 375.89 L 251.49 388.64 L 263.65 400.75 L 276.71 413.06 L 290.70 425.58 L 305.67 438.32 L 320.70 450.53 L 336.48 462.81 L 353.04 475.15 L 370.41 487.55 L 387.83 499.50 L 405.84 511.38 L 424.46 523.19 L 443.70 534.92 L 463.02 546.25 L 482.76 557.38 L 502.92 568.30 L 523.52 579.02 L 544.29 589.38 L 564.98 599.28 L 585.59 608.70 L 606.11 617.68 L 626.91 626.34 L 647.40 634.47 L 667.60 642.06 L 687.51 649.12 L 707.75 655.88 L 727.47 662.03 L 746.68 667.58 L 765.39 672.56 L 784.50 677.18 L 802.85 681.14 L 820.48 684.47 L 837.43 687.19 L 854.82 689.44 L 871.01 690.99 L 886.07 691.88 L 900.06 692.18 L 911.71 691.98 L 922.53 691.37 L 932.55 690.40 L 941.84 689.07 L 950.44 687.43 L 959.38 685.21 L 967.46 682.65 L 974.77 679.79 L 981.36 676.63 L 987.29 673.20 L 992.18 669.83 L 996.53 666.24 L 1000.40 662.46 L 1003.81 658.46 L 1006.79 654.25 L 1009.34 649.79 Z" fill="#000000" fill-rule="evenodd" node-id="232" stroke="none" target-height="506.99" target-width="840.88" target-x="174.58" target-y="185.19"></path></clipPath></defs><path d="M 0.00 0.00 L 1024.00 0.00 L 1024.00 1024.00 L 0.00 1024.00 Z" fill="#ffffff" fill-rule="evenodd" node-id="238" stroke="none" target-height="1024" target-width="1024" target-x="0" target-y="0"></path><g node-id="311"><g node-id="315"><path d="M 95.00 572.34 L 96.91 545.78 L 99.24 521.25 L 101.97 498.63 L 105.06 477.80 L 108.47 458.68 L 112.17 441.14 L 116.14 425.11 L 120.35 410.47 L 124.76 397.15 L 129.36 385.05 L 134.13 374.09 L 139.05 364.19 L 144.11 355.27 L 149.30 347.27 L 154.60 340.12 L 160.01 333.75 L 165.54 328.12 L 171.19 323.17 L 176.96 318.86 L 188.99 314.44 L 199.21 311.23 L 205.92 309.60 L 212.12 308.62 L 217.86 308.23 L 222.16 308.35 L 226.39 308.89 L 230.59 309.85 L 234.76 311.24 L 238.72 312.99 L 242.86 315.27 L 247.20 318.14 L 251.76 321.66 L 257.41 326.67 L 263.70 333.01 L 270.70 340.86 L 277.37 348.97 L 284.91 358.70 L 293.41 370.24 L 306.27 388.48 L 321.74 411.18 L 357.53 465.08 L 402.62 533.31" fill="url(#linearGradient-1)" fill-rule="evenodd" group-id="1,5" id="路径-160" node-id="71" stroke="none" target-height="264.11002" target-width="307.62" target-x="95" target-y="308.23"></path><path d="M 371.94 602.68 L 366.58 570.56 L 362.08 540.02 L 358.41 511.01 L 355.51 483.46 L 353.36 457.32 L 351.92 432.53 L 351.14 409.03 L 350.99 386.77 L 351.44 365.70 L 352.46 345.76 L 354.01 326.91 L 356.06 309.09 L 358.59 292.26 L 361.57 276.37 L 364.98 261.38 L 368.80 247.24 L 373.01 233.91 L 377.58 221.35 L 382.52 209.53 L 387.80 198.40 L 393.41 187.94 L 399.35 178.11 L 405.62 168.87 L 412.20 160.21 L 419.12 152.10 L 426.35 144.51 L 433.92 137.43 L 441.84 130.83 L 450.11 124.72 L 458.74 119.07 L 467.76 113.88 L 477.19 109.14 L 487.03 104.86 L 497.33 101.03 L 508.10 97.67 L 519.36 94.79 L 531.16 92.38 L 543.51 90.49 L 556.44 89.11 L 570.00 88.27 L 584.21 88.00 L 599.11 88.33 L 614.73 89.27 L 621.42 91.05 L 625.96 92.27 L 631.77 94.19 L 635.70 95.76 L 640.08 97.84 L 644.98 100.52 L 649.66 103.49 L 654.73 107.24 L 660.23 111.87 L 665.39 116.82 L 670.87 122.84 L 676.71 130.06 L 682.10 137.57 L 687.73 146.48 L 693.63 156.93 L 697.63 164.78 L 701.72 173.58 L 705.90 183.39 L 710.16 194.30 L 713.96 204.95 L 717.79 216.73 L 721.64 229.72 L 725.49 244.00 L 728.91 257.92 L 732.28 273.15 L 735.59 289.76 L 738.83 307.86 L 742.57 331.71 L 746.09 358.26 L 749.36 387.71 L 752.03 417.19 L 754.35 449.67 L 756.27 485.37 L 757.60 521.09 L 758.45 560.12 L 758.75 602.68" fill="url(#linearGradient-2)" fill-rule="evenodd" group-id="1,5" id="路径-161" node-id="72" stroke="none" target-height="514.68" target-width="407.76" target-x="350.99" target-y="88"></path><path d="M 709.37 568.09 L 709.71 540.43 L 710.60 514.92 L 711.99 491.43 L 713.84 469.85 L 716.12 450.07 L 718.78 431.97 L 721.78 415.45 L 725.09 400.42 L 728.68 386.76 L 732.51 374.39 L 736.57 363.21 L 740.83 353.15 L 745.27 344.11 L 749.87 336.02 L 754.62 328.82 L 759.52 322.42 L 764.55 316.77 L 769.72 311.83 L 775.03 307.53 L 780.50 303.84 L 786.14 300.72 L 791.96 298.16 L 798.00 296.14 L 804.27 294.65 L 810.81 293.70 L 817.65 293.29 L 824.83 293.46 L 832.38 294.23 L 840.33 295.63 L 848.74 297.73 L 857.63 300.56 L 867.05 304.19 L 870.31 306.18 L 873.65 308.92 L 877.09 312.51 L 880.65 317.10 L 884.32 322.85 L 888.12 329.92 L 892.03 338.51 L 896.05 348.82 L 900.17 361.07 L 904.36 375.49 L 908.61 392.33 L 912.90 411.85 L 917.21 434.32 L 921.52 460.02 L 925.79 489.26 L 930.00 522.35 L 934.13 559.60 L 938.14 601.37 L 942.00 648.00" fill="url(#linearGradient-3)" fill-rule="evenodd" group-id="1,5" id="路径-162" node-id="73" stroke="none" target-height="354.71" target-width="232.63" target-x="709.37" target-y="293.29"></path></g><g node-id="316"><g node-id="322"><path d="M 983.00 759.50 L 982.75 764.63 L 982.01 769.73 L 980.79 774.84 L 979.06 779.97 L 976.80 785.14 L 973.98 790.37 L 970.26 796.12 L 965.82 801.92 L 960.61 807.79 L 954.56 813.74 L 947.60 819.77 L 940.69 825.14 L 933.02 830.54 L 924.53 835.96 L 915.17 841.41 L 904.87 846.88 L 892.27 852.97 L 878.45 859.00 L 863.32 864.98 L 846.80 870.87 L 830.47 876.14 L 813.25 881.18 L 795.10 885.98 L 775.98 890.54 L 757.05 894.59 L 737.41 898.36 L 717.05 901.84 L 695.95 905.01 L 675.00 907.75 L 653.56 910.16 L 631.61 912.23 L 609.14 913.95 L 586.78 915.27 L 564.14 916.22 L 541.22 916.80 L 518.00 917.00 L 494.78 916.80 L 471.86 916.22 L 449.22 915.27 L 426.86 913.95 L 404.39 912.23 L 382.44 910.16 L 361.00 907.75 L 340.05 905.01 L 318.95 901.84 L 298.59 898.36 L 278.95 894.59 L 260.02 890.54 L 240.90 885.98 L 222.75 881.18 L 205.53 876.14 L 189.20 870.87 L 172.68 864.98 L 157.55 859.00 L 143.73 852.97 L 131.13 846.88 L 120.83 841.41 L 111.47 835.96 L 102.98 830.54 L 95.31 825.14 L 88.40 819.77 L 81.44 813.74 L 75.39 807.79 L 70.18 801.92 L 65.74 796.12 L 62.02 790.37 L 59.20 785.14 L 56.94 779.97 L 55.21 774.84 L 53.99 769.73 L 53.25 764.63 L 53.00 759.50 L 53.25 754.37 L 53.99 749.27 L 55.21 744.16 L 56.94 739.03 L 59.20 733.86 L 62.02 728.63 L 65.74 722.88 L 70.18 717.08 L 75.39 711.21 L 81.44 705.26 L 88.40 699.23 L 95.31 693.86 L 102.98 688.46 L 111.47 683.04 L 120.83 677.59 L 131.13 672.12 L 143.73 666.03 L 157.55 660.00 L 172.68 654.02 L 189.20 648.13 L 205.53 642.86 L 222.75 637.82 L 240.90 633.02 L 260.02 628.46 L 278.95 624.41 L 298.59 620.64 L 318.95 617.16 L 340.05 613.99 L 361.00 611.25 L 382.44 608.84 L 404.39 606.77 L 426.86 605.05 L 449.22 603.73 L 471.86 602.78 L 494.78 602.20 L 518.00 602.00 L 541.22 602.20 L 564.14 602.78 L 586.78 603.73 L 609.14 605.05 L 631.61 606.77 L 653.56 608.84 L 675.00 611.25 L 695.95 613.99 L 717.05 617.16 L 737.41 620.64 L 757.05 624.41 L 775.98 628.46 L 795.10 633.02 L 813.25 637.82 L 830.47 642.86 L 846.80 648.13 L 863.32 654.02 L 878.45 660.00 L 892.27 666.03 L 904.87 672.12 L 915.17 677.59 L 924.53 683.04 L 933.02 688.46 L 940.69 693.86 L 947.60 699.23 L 954.56 705.26 L 960.61 711.21 L 965.82 717.08 L 970.26 722.88 L 973.98 728.63 L 976.80 733.86 L 979.06 739.03 L 980.79 744.16 L 982.01 749.27 L 982.75 754.37 L 983.00 759.50 Z" fill="#fae3d4" fill-rule="evenodd" group-id="1,6,12" node-id="248" stroke="none" target-height="315" target-width="930" target-x="53" target-y="602"></path></g><g node-id="323"><g clip-path="url(#mask-5_3)" group-id="1,6,13" node-id="251"><path d="M 301.58 883.86 L 302.43 874.44 L 303.67 866.48 L 305.24 859.80 L 307.08 854.25 L 309.15 849.68 L 311.41 845.95 L 313.85 842.95 L 316.47 840.58 L 319.27 838.77 L 322.30 837.48 L 325.59 836.69 L 329.22 836.42 L 333.24 836.71 L 337.74 837.64 L 342.78 839.31 L 348.45 841.83 L 354.84 845.35 L 362.02 850.02 L 370.10 856.01 L 379.17 863.52 L 389.32 872.73 L 400.66 883.86 L 401.01 884.20 L 401.72 884.18 L 403.16 883.52 L 408.75 879.78 L 412.38 877.30 L 416.72 874.54 L 421.35 871.96 L 426.36 869.68 L 429.84 868.45 L 433.37 867.58 L 436.96 867.08 L 440.56 867.02 L 444.16 867.53 L 447.80 868.62 L 450.35 869.80 L 452.92 871.42 L 455.53 873.53 L 458.18 876.20 L 460.45 879.01 L 462.74 882.46 L 465.05 886.66 L 467.37 891.70 L 469.90 898.44 L 472.35 906.79 L 474.68 917.00 L 464.96 919.60 L 454.76 921.70 L 444.05 923.30 L 432.81 924.37 L 421.00 924.90 L 408.59 924.84 L 395.53 924.17 L 381.80 922.87 L 367.35 920.88 L 352.14 918.18 L 336.14 914.72 L 319.30 910.45 L 301.58 905.32 L 301.58 883.86 Z" fill="#f7ceb1" fill-rule="evenodd" group-id="1,6,13" id="路径-163" node-id="78" stroke="none" target-height="88.48004" target-width="173.1" target-x="301.58" target-y="836.42"></path></g></g><g clip-path="url(#mask-5_4)" group-id="1,6,14" node-id="255"><path d="M 768.36 627.01 L 767.33 633.55 L 767.00 639.27 L 767.27 644.27 L 768.06 648.65 L 769.32 652.49 L 771.04 655.87 L 773.20 658.85 L 775.84 661.47 L 779.01 663.76 L 782.77 665.70 L 787.21 667.29 L 792.44 668.49 L 798.58 669.22 L 805.75 669.43 L 814.10 669.01 L 823.77 667.88 L 834.93 665.90 L 847.74 662.96 L 862.38 658.93 L 862.82 658.79 L 863.40 659.12 L 864.30 660.37 L 867.33 666.23 L 869.29 670.09 L 871.76 674.55 L 874.57 678.98 L 877.89 683.36 L 880.37 686.08 L 883.08 688.52 L 886.03 690.69 L 889.21 692.47 L 892.68 693.77 L 896.48 694.59 L 899.35 694.81 L 902.45 694.66 L 905.84 694.10 L 909.54 693.09 L 912.98 691.77 L 916.76 689.91 L 920.92 687.42 L 925.51 684.21 L 925.56 683.94 L 925.03 683.28 L 923.02 681.79 L 919.65 679.72 L 914.21 676.71 L 908.08 673.56 L 900.33 669.80 L 892.06 666.00 L 882.63 661.88 L 872.85 657.84 L 862.38 653.77 L 839.92 646.08 L 821.44 640.21 L 804.16 635.18 L 790.46 631.61 L 777.83 628.76 L 768.36 627.01 Z" fill="#f7ceb1" fill-rule="evenodd" group-id="1,6,14" id="路径-163备份" node-id="79" stroke="none" target-height="67.79999" target-width="158.56" target-x="767" target-y="627.01"></path></g></g></g><g node-id="312"><g node-id="317"><g node-id="325"><path d="M 186.17 772.24 L 189.83 767.73 L 213.89 787.22 L 210.24 791.73 Z" fill="url(#linearGradient-6)" fill-rule="evenodd" group-id="2,7,15" id="矩形备份-23" node-id="82" stroke="none" target-height="24" target-width="27.720001" target-x="186.17" target-y="767.73"></path></g><path d="M 209.00 761.00 L 215.00 761.00 L 215.00 792.00 L 209.00 792.00 Z" fill="url(#linearGradient-7)" fill-rule="evenodd" group-id="2,7" id="矩形" node-id="83" stroke="none" target-height="31" target-width="6" target-x="209" target-y="761"></path><path d="M 211.00 760.00 L 215.53 759.69 L 219.80 758.82 L 223.85 757.42 L 227.68 755.50 L 231.16 753.16 L 234.33 750.38 L 237.13 747.22 L 239.48 743.75 L 241.41 739.93 L 242.82 735.91 L 243.69 731.66 L 244.00 727.15 L 243.84 723.50 L 243.35 719.53 L 242.50 715.23 L 240.70 708.84 L 238.19 702.18 L 236.17 697.82 L 233.88 693.55 L 231.32 689.37 L 228.49 685.36 L 225.44 681.64 L 222.17 678.18 L 218.62 675.02 L 214.91 672.30 L 211.00 670.00 L 207.56 671.75 L 204.15 674.08 L 200.73 677.04 L 197.60 680.32 L 194.59 683.99 L 191.70 688.08 L 187.83 694.54 L 184.49 701.32 L 181.74 708.28 L 179.72 714.94 L 178.75 719.44 L 178.19 723.49 L 178.00 727.15 L 178.31 731.66 L 179.18 735.91 L 180.59 739.93 L 182.52 743.75 L 184.87 747.22 L 187.67 750.38 L 190.84 753.16 L 194.32 755.50 L 198.15 757.42 L 202.20 758.82 L 206.47 759.69 L 211.00 760.00 Z" fill="url(#linearGradient-8)" fill-rule="evenodd" group-id="2,7" id="椭圆形" node-id="84" stroke="none" target-height="90" target-width="66" target-x="178" target-y="670"></path></g><g node-id="318"><g node-id="326"><path d="M 758.80 639.69 L 761.72 636.08 L 780.97 651.67 L 778.05 655.28 Z" fill="url(#linearGradient-9)" fill-rule="evenodd" group-id="2,8,16" id="矩形备份-23" node-id="86" stroke="none" target-height="19.200012" target-width="22.169983" target-x="758.8" target-y="636.08"></path></g><path d="M 777.00 631.00 L 782.00 631.00 L 782.00 655.00 L 777.00 655.00 Z" fill="url(#linearGradient-10)" fill-rule="evenodd" group-id="2,8" id="矩形" node-id="87" stroke="none" target-height="24" target-width="5" target-x="777" target-y="631"></path><path d="M 778.50 631.00 L 782.14 630.75 L 785.57 630.05 L 788.82 628.91 L 791.89 627.35 L 794.69 625.45 L 797.24 623.19 L 799.48 620.63 L 801.37 617.82 L 802.92 614.72 L 804.05 611.46 L 804.75 608.01 L 805.00 604.35 L 804.80 600.64 L 804.19 596.56 L 803.13 592.08 L 801.74 587.70 L 799.97 583.28 L 797.82 578.81 L 795.34 574.51 L 792.55 570.49 L 789.46 566.72 L 786.04 563.28 L 782.39 560.39 L 778.50 558.00 L 775.74 559.42 L 773.00 561.31 L 770.26 563.71 L 767.74 566.37 L 765.32 569.35 L 763.00 572.67 L 759.89 577.90 L 757.21 583.40 L 755.00 589.05 L 753.38 594.46 L 752.60 598.10 L 752.15 601.38 L 752.00 604.35 L 752.25 608.01 L 752.95 611.46 L 754.08 614.72 L 755.63 617.82 L 757.52 620.63 L 759.76 623.19 L 762.31 625.45 L 765.11 627.35 L 768.18 628.91 L 771.43 630.05 L 774.86 630.75 L 778.50 631.00 Z" fill="url(#linearGradient-11)" fill-rule="evenodd" group-id="2,8" id="椭圆形" node-id="88" stroke="none" target-height="73" target-width="53" target-x="752" target-y="558"></path></g><g node-id="319"><g node-id="327"><path d="M 280.64 632.66 L 282.59 630.25 L 295.42 640.65 L 293.47 643.05 Z" fill="url(#linearGradient-12)" fill-rule="evenodd" group-id="2,9,17" id="矩形备份-23" node-id="90" stroke="none" target-height="12.799988" target-width="14.779999" target-x="280.64" target-y="630.25"></path></g><path d="M 294.00 628.00 L 297.00 628.00 L 297.00 644.00 L 294.00 644.00 Z" fill="url(#linearGradient-13)" fill-rule="evenodd" group-id="2,9" id="矩形" node-id="91" stroke="none" target-height="16" target-width="3" target-x="294" target-y="628"></path><path d="M 294.00 626.00 L 297.29 625.70 L 300.30 624.90 L 303.08 623.61 L 305.62 621.86 L 307.76 619.78 L 309.54 617.32 L 310.87 614.60 L 311.69 611.67 L 312.00 608.48 L 311.69 604.73 L 310.73 600.41 L 309.22 596.08 L 307.12 591.68 L 304.52 587.52 L 301.45 583.74 L 299.12 581.48 L 296.65 579.57 L 294.00 578.00 L 291.67 579.21 L 289.37 580.88 L 287.09 583.06 L 284.07 586.79 L 281.36 591.09 L 279.12 595.66 L 277.45 600.19 L 276.63 603.28 L 276.16 606.03 L 276.00 608.48 L 276.31 611.67 L 277.13 614.60 L 278.46 617.32 L 280.24 619.78 L 282.38 621.86 L 284.92 623.61 L 287.70 624.90 L 290.71 625.70 L 294.00 626.00 Z" fill="url(#linearGradient-14)" fill-rule="evenodd" group-id="2,9" id="椭圆形" node-id="92" stroke="none" target-height="48" target-width="36" target-x="276" target-y="578"></path></g></g><path d="M 416.80 726.43 L 280.69 626.50 L 402.62 611.00 L 583.96 734.00 Z" fill="url(#linearGradient-15)" fill-rule="evenodd" id="路径-167" node-id="93" stroke="none" target-height="123" target-width="303.27002" target-x="280.69" target-y="611"></path><path d="M 533.06 444.80 L 543.12 443.76 L 553.14 442.14 L 553.14 411.86 L 552.94 408.03 L 552.38 404.38 L 551.49 400.88 L 550.25 397.51 L 548.09 393.23 L 545.47 389.34 L 542.35 385.80 L 538.80 382.68 L 534.91 380.05 L 530.63 377.90 L 527.27 376.66 L 523.77 375.76 L 520.11 375.20 L 516.29 375.00 L 512.46 375.20 L 508.81 375.76 L 505.31 376.66 L 501.94 377.90 L 497.66 380.05 L 493.77 382.68 L 490.22 385.80 L 487.10 389.34 L 484.48 393.23 L 482.32 397.51 L 481.09 400.88 L 480.19 404.38 L 479.63 408.03 L 479.43 411.86 L 479.43 441.04 L 479.43 441.68 L 486.97 443.03 L 493.03 443.88 L 499.61 444.51 L 510.60 445.29" fill="url(#linearGradient-16)" fill-rule="evenodd" group-id="3,10" id="路径备份-2" node-id="95" stroke="none" target-height="70.29001" target-width="73.71002" target-x="479.43" target-y="375"></path><path d="M 516.00 426.43 L 520.00 426.43 L 528.58 426.73 L 536.92 427.57 L 545.04 428.95 L 552.96 430.86 L 560.78 433.30 L 568.31 436.19 L 575.57 439.54 L 582.59 443.36 L 589.35 447.62 L 595.78 452.27 L 601.89 457.31 L 607.68 462.75 L 613.12 468.54 L 618.16 474.65 L 622.80 481.08 L 627.07 487.84 L 630.89 494.86 L 634.24 502.12 L 637.13 509.65 L 639.57 517.46 L 641.48 525.39 L 642.86 533.51 L 643.70 541.85 L 644.00 550.43 L 644.00 621.29 L 643.70 629.87 L 642.86 638.21 L 641.48 646.33 L 639.57 654.25 L 637.13 662.06 L 634.24 669.59 L 630.89 676.86 L 627.07 683.87 L 622.80 690.64 L 618.16 697.07 L 613.12 703.17 L 607.68 708.97 L 601.89 714.40 L 595.78 719.44 L 589.35 724.09 L 582.59 728.36 L 575.57 732.17 L 568.31 735.52 L 560.78 738.42 L 552.96 740.86 L 545.04 742.76 L 536.92 744.14 L 528.58 744.99 L 520.00 745.29 L 516.00 745.29 L 507.42 744.98 L 499.08 744.14 L 490.96 742.76 L 483.04 740.86 L 475.22 738.42 L 467.69 735.52 L 460.43 732.17 L 453.41 728.36 L 446.65 724.09 L 440.22 719.44 L 434.11 714.40 L 428.32 708.97 L 422.88 703.17 L 417.84 697.07 L 413.20 690.64 L 408.93 683.87 L 405.11 676.86 L 401.76 669.59 L 398.87 662.06 L 396.43 654.25 L 394.52 646.33 L 393.14 638.21 L 392.30 629.87 L 392.00 621.29 L 392.00 550.43 L 392.30 541.85 L 393.14 533.51 L 394.52 525.39 L 396.43 517.46 L 398.87 509.65 L 401.76 502.12 L 405.11 494.86 L 408.93 487.84 L 413.20 481.08 L 417.84 474.65 L 422.88 468.54 L 428.32 462.75 L 434.11 457.31 L 440.22 452.27 L 446.65 447.62 L 453.41 443.36 L 460.43 439.54 L 467.69 436.19 L 475.22 433.30 L 483.04 430.86 L 490.96 428.95 L 499.08 427.57 L 507.42 426.73 L 516.00 426.43 Z" fill="url(#linearGradient-17)" fill-rule="evenodd" group-id="3" id="矩形" node-id="96" stroke="none" target-height="318.86" target-width="252" target-x="392" target-y="426.43"></path><path d="M 668.00 665.79 L 667.77 670.14 L 667.12 674.41 L 666.06 678.62 L 664.57 682.79 L 662.64 686.92 L 659.79 691.78 L 656.35 696.56 L 652.28 701.26 L 647.52 705.91 L 642.52 710.12 L 636.98 714.21 L 630.84 718.17 L 624.07 722.00 L 617.23 725.41 L 609.91 728.62 L 602.08 731.63 L 593.71 734.43 L 585.35 736.84 L 576.61 738.99 L 567.46 740.86 L 557.88 742.45 L 548.35 743.66 L 538.54 744.55 L 528.42 745.09 L 518.00 745.29 L 507.58 745.09 L 497.46 744.55 L 487.65 743.66 L 478.12 742.45 L 468.54 740.86 L 459.39 738.99 L 450.65 736.84 L 442.29 734.43 L 433.92 731.63 L 426.09 728.62 L 418.77 725.41 L 411.93 722.00 L 405.16 718.17 L 399.02 714.21 L 393.48 710.12 L 388.48 705.91 L 383.72 701.26 L 379.65 696.56 L 376.21 691.78 L 373.36 686.92 L 371.43 682.79 L 369.94 678.62 L 368.88 674.41 L 368.23 670.14 L 368.00 665.79 L 368.23 661.43 L 368.88 657.16 L 369.94 652.95 L 371.43 648.79 L 373.36 644.65 L 376.21 639.79 L 379.65 635.02 L 383.72 630.31 L 388.48 625.66 L 393.48 621.45 L 399.02 617.36 L 405.16 613.40 L 411.93 609.57 L 418.77 606.16 L 426.09 602.95 L 433.92 599.94 L 442.29 597.14 L 450.65 594.73 L 459.39 592.58 L 468.54 590.71 L 478.12 589.13 L 487.65 587.91 L 497.46 587.02 L 507.58 586.48 L 518.00 586.29 L 528.42 586.48 L 538.54 587.02 L 548.35 587.91 L 557.88 589.13 L 567.46 590.71 L 576.61 592.58 L 585.35 594.73 L 593.71 597.14 L 602.08 599.94 L 609.91 602.95 L 617.23 606.16 L 624.07 609.57 L 630.84 613.40 L 636.98 617.36 L 642.52 621.45 L 647.52 625.66 L 652.28 630.31 L 656.35 635.02 L 659.79 639.79 L 662.64 644.65 L 664.57 648.79 L 666.06 652.95 L 667.12 657.16 L 667.77 661.43 L 668.00 665.79 Z" fill="url(#linearGradient-18)" fill-rule="evenodd" group-id="3" id="椭圆形" node-id="97" stroke="none" target-height="159" target-width="300" target-x="368" target-y="586.29"></path><path d="M 626.86 671.57 L 626.61 675.15 L 625.94 678.65 L 624.84 682.10 L 623.29 685.51 L 621.26 688.91 L 618.34 692.78 L 614.82 696.58 L 610.62 700.31 L 605.69 703.97 L 600.62 707.17 L 595.00 710.22 L 588.79 713.12 L 581.94 715.84 L 575.10 718.16 L 567.82 720.24 L 560.07 722.07 L 551.82 723.63 L 543.64 724.82 L 535.14 725.69 L 526.31 726.23 L 517.14 726.43 L 507.97 726.23 L 499.15 725.69 L 490.65 724.82 L 482.46 723.63 L 474.22 722.07 L 466.47 720.24 L 459.18 718.16 L 452.35 715.84 L 445.50 713.12 L 439.29 710.22 L 433.67 707.17 L 428.60 703.97 L 423.67 700.31 L 419.47 696.58 L 415.94 692.78 L 413.02 688.91 L 410.99 685.51 L 409.44 682.10 L 408.34 678.65 L 407.67 675.15 L 407.43 671.57 L 407.67 667.99 L 408.34 664.49 L 409.44 661.04 L 410.99 657.63 L 413.02 654.23 L 415.94 650.36 L 419.47 646.56 L 423.67 642.83 L 428.60 639.17 L 433.67 635.97 L 439.29 632.92 L 445.50 630.03 L 452.35 627.30 L 459.18 624.98 L 466.47 622.90 L 474.22 621.08 L 482.46 619.51 L 490.65 618.32 L 499.15 617.45 L 507.97 616.91 L 517.14 616.71 L 526.31 616.91 L 535.14 617.45 L 543.64 618.32 L 551.82 619.51 L 560.07 621.08 L 567.82 622.90 L 575.10 624.98 L 581.94 627.30 L 588.79 630.03 L 595.00 632.92 L 600.62 635.97 L 605.69 639.17 L 610.62 642.83 L 614.82 646.56 L 618.34 650.36 L 621.26 654.23 L 623.29 657.63 L 624.84 661.04 L 625.94 664.49 L 626.61 667.99 L 626.86 671.57 Z" fill="url(#linearGradient-19)" fill-rule="evenodd" group-id="3" id="椭圆形" node-id="98" stroke="none" target-height="109.71997" target-width="219.43" target-x="407.43" target-y="616.71"></path><path d="M 533.06 617.20 L 543.12 618.24 L 553.14 619.86 L 553.14 650.14 L 552.94 653.97 L 552.38 657.62 L 551.49 661.12 L 550.25 664.49 L 548.09 668.77 L 545.47 672.66 L 542.35 676.20 L 538.80 679.32 L 534.91 681.95 L 530.63 684.10 L 527.27 685.34 L 523.77 686.24 L 520.11 686.80 L 516.29 687.00 L 512.46 686.80 L 508.81 686.24 L 505.31 685.34 L 501.94 684.10 L 497.66 681.95 L 493.77 679.32 L 490.22 676.20 L 487.10 672.66 L 484.48 668.77 L 482.32 664.49 L 481.09 661.12 L 480.19 657.62 L 479.63 653.97 L 479.43 650.14 L 479.43 620.96 L 479.43 620.32 L 486.97 618.97 L 493.03 618.12 L 499.61 617.49 L 510.60 616.71" fill="url(#linearGradient-20)" fill-rule="evenodd" group-id="3" id="路径" node-id="99" stroke="none" target-height="70.28998" target-width="73.71002" target-x="479.43" target-y="616.71"></path><path d="M 725.00 554.00 C 725.00 585.48 699.26 611.00 667.50 611.00 C 635.74 611.00 610.00 585.48 610.00 554.00 C 610.00 522.52 635.74 497.00 667.50 497.00 C 699.26 497.00 725.00 522.52 725.00 554.00 Z" fill="#e37a36" fill-rule="evenodd" id="椭圆形" node-id="100" stroke="none" target-height="114" target-width="115" target-x="610" target-y="497"></path><path d="M 728.00 554.00 C 728.00 585.48 702.26 611.00 670.50 611.00 C 638.74 611.00 613.00 585.48 613.00 554.00 C 613.00 522.52 638.74 497.00 670.50 497.00 C 702.26 497.00 728.00 522.52 728.00 554.00 Z" fill="url(#linearGradient-21)" fill-rule="evenodd" id="椭圆形" node-id="101" stroke="none" target-height="114" target-width="115" target-x="613" target-y="497"></path><path d="M 662.78 520.47 L 665.57 577.29 L 675.06 577.29 L 677.85 520.47 L 662.78 520.47 Z M 670.26 583.32 L 667.90 583.60 L 665.92 584.38 L 664.23 585.67 L 663.08 586.93 L 662.28 588.33 L 661.81 589.90 L 661.66 591.70 L 661.81 593.49 L 662.28 595.06 L 663.08 596.46 L 664.23 597.72 L 665.92 599.05 L 667.90 599.87 L 670.26 600.18 L 672.59 599.91 L 674.65 599.14 L 676.51 597.84 L 677.84 596.11 L 678.66 594.09 L 678.97 591.70 L 678.66 589.34 L 677.84 587.36 L 676.51 585.67 L 674.70 584.37 L 672.64 583.59 L 670.26 583.32 Z" fill="#f43529" fill-rule="nonzero" group-id="4,11,18" node-id="304" stroke="none" target-height="79.71002" target-width="17.309998" target-x="661.66" target-y="520.47"></path><path d="M 662.78 520.47 L 665.57 577.29 L 675.06 577.29 L 677.85 520.47 L 662.78 520.47 Z M 670.26 583.32 L 667.90 583.60 L 665.92 584.38 L 664.23 585.67 L 663.08 586.93 L 662.28 588.33 L 661.81 589.90 L 661.66 591.70 L 661.81 593.49 L 662.28 595.06 L 663.08 596.46 L 664.23 597.72 L 665.92 599.05 L 667.90 599.87 L 670.26 600.18 L 672.59 599.91 L 674.65 599.14 L 676.51 597.84 L 677.84 596.11 L 678.66 594.09 L 678.97 591.70 L 678.66 589.34 L 677.84 587.36 L 676.51 585.67 L 674.70 584.37 L 672.64 583.59 L 670.26 583.32 Z" fill="url(#linearGradient-22)" fill-rule="nonzero" group-id="4,11,19" node-id="309" stroke="none" target-height="79.71002" target-width="17.309998" target-x="661.66" target-y="520.47"></path></svg>