<?xml version="1.0" standalone="no"?><!DOCTYPE svg PUBLIC "-//W3C//DTD SVG 1.1//EN" "http://www.w3.org/Graphics/SVG/1.1/DTD/svg11.dtd"><svg height="1024" node-id="1" sillyvg="true" template-height="1024" template-width="1024" version="1.1" viewBox="0 0 1024 1024" width="1024" xmlns="http://www.w3.org/2000/svg" xmlns:xlink="http://www.w3.org/1999/xlink"><defs node-id="133"><linearGradient gradientUnits="objectBoundingBox" id="linearGradient-1" node-id="5" spreadMethod="pad" x1="0.5" x2="0.5" y1="0" y2="1"><stop offset="0" stop-color="#fbeae0"></stop><stop offset="1" stop-color="#faf7f8" stop-opacity="0"></stop></linearGradient><linearGradient gradientUnits="objectBoundingBox" id="linearGradient-2" node-id="8" spreadMethod="pad" x1="0.5" x2="0.5" y1="0" y2="1"><stop offset="0" stop-color="#fbeae0"></stop><stop offset="1" stop-color="#fff0ec" stop-opacity="0.005018541"></stop></linearGradient><linearGradient gradientUnits="objectBoundingBox" id="linearGradient-3" node-id="11" spreadMethod="pad" x1="0.5" x2="0.5" y1="0" y2="1"><stop offset="0" stop-color="#fbebe2"></stop><stop offset="1" stop-color="#fcf6f3" stop-opacity="0"></stop></linearGradient><linearGradient gradientUnits="objectBoundingBox" id="linearGradient-6" node-id="15" spreadMethod="pad" x1="0.5" x2="0.5" y1="0" y2="1"><stop offset="0" stop-color="#f0cdb7" stop-opacity="0"></stop><stop offset="1" stop-color="#d16019"></stop></linearGradient><linearGradient gradientUnits="objectBoundingBox" id="linearGradient-7" node-id="18" spreadMethod="pad" x1="0.5" x2="0.5" y1="0" y2="1"><stop offset="0" stop-color="#f5b085"></stop><stop offset="1" stop-color="#e87d3a"></stop></linearGradient><linearGradient gradientUnits="objectBoundingBox" id="linearGradient-8" node-id="21" spreadMethod="pad" x1="0.5" x2="0.5" y1="0" y2="1"><stop offset="0" stop-color="#f3a676"></stop><stop offset="1" stop-color="#ec8e53"></stop></linearGradient><linearGradient gradientUnits="objectBoundingBox" id="linearGradient-9" node-id="24" spreadMethod="pad" x1="0.58909297" x2="0.5" y1="0" y2="1"><stop offset="0" stop-color="#f3a778"></stop><stop offset="1" stop-color="#ed9259"></stop></linearGradient><linearGradient gradientUnits="objectBoundingBox" id="linearGradient-10" node-id="27" spreadMethod="pad" x1="0.5" x2="0.5" y1="0" y2="1"><stop offset="0" stop-color="#f0cdb7" stop-opacity="0"></stop><stop offset="1" stop-color="#d16019"></stop></linearGradient><linearGradient gradientUnits="objectBoundingBox" id="linearGradient-11" node-id="30" spreadMethod="pad" x1="0.5" x2="0.5" y1="0" y2="1"><stop offset="0" stop-color="#f5b085"></stop><stop offset="1" stop-color="#e87d3a"></stop></linearGradient><linearGradient gradientUnits="objectBoundingBox" id="linearGradient-12" node-id="33" spreadMethod="pad" x1="0.5" x2="0.5" y1="0" y2="1"><stop offset="0" stop-color="#f3a676"></stop><stop offset="1" stop-color="#ec8e53"></stop></linearGradient><linearGradient gradientUnits="objectBoundingBox" id="linearGradient-13" node-id="36" spreadMethod="pad" x1="0.59946036" x2="0.5" y1="0" y2="1"><stop offset="0" stop-color="#f3a778"></stop><stop offset="1" stop-color="#ed9259"></stop></linearGradient><linearGradient gradientUnits="objectBoundingBox" id="linearGradient-14" node-id="39" spreadMethod="pad" x1="0.5" x2="0.5" y1="0" y2="1"><stop offset="0" stop-color="#f0cdb7" stop-opacity="0"></stop><stop offset="1" stop-color="#d16019"></stop></linearGradient><linearGradient gradientUnits="objectBoundingBox" id="linearGradient-15" node-id="42" spreadMethod="pad" x1="0.5" x2="0.5" y1="0" y2="1"><stop offset="0" stop-color="#f5b085"></stop><stop offset="1" stop-color="#e87d3a"></stop></linearGradient><linearGradient gradientUnits="objectBoundingBox" id="linearGradient-16" node-id="45" spreadMethod="pad" x1="0.5" x2="0.5" y1="0" y2="1"><stop offset="0" stop-color="#f3a676"></stop><stop offset="1" stop-color="#ec8e53"></stop></linearGradient><linearGradient gradientUnits="objectBoundingBox" id="linearGradient-17" node-id="48" spreadMethod="pad" x1="0.58909297" x2="0.5" y1="0" y2="1"><stop offset="0" stop-color="#f3a778"></stop><stop offset="1" stop-color="#ed9259"></stop></linearGradient><linearGradient gradientUnits="objectBoundingBox" id="linearGradient-18" node-id="51" spreadMethod="pad" x1="0.5" x2="0.5" y1="0" y2="1"><stop offset="0" stop-color="#dc6d23"></stop><stop offset="1" stop-color="#e37c38"></stop></linearGradient><linearGradient gradientUnits="objectBoundingBox" id="linearGradient-19" node-id="54" spreadMethod="pad" x1="0.16313137" x2="0.8256772" y1="0.3421385" y2="0.5434235"><stop offset="0" stop-color="#fbd6c0" stop-opacity="0"></stop><stop offset="1" stop-color="#f1ba99"></stop></linearGradient><linearGradient gradientUnits="objectBoundingBox" id="linearGradient-20" node-id="57" spreadMethod="pad" x1="0.5" x2="0.6297732" y1="0.065624356" y2="0.88894516"><stop offset="0" stop-color="#fde8da"></stop><stop offset="1" stop-color="#fde8db"></stop></linearGradient><linearGradient gradientUnits="objectBoundingBox" id="linearGradient-21" node-id="60" spreadMethod="pad" x1="0.5" x2="0.5" y1="0" y2="1"><stop offset="0" stop-color="#f6ba94"></stop><stop offset="1" stop-color="#fde8db"></stop></linearGradient><linearGradient gradientUnits="objectBoundingBox" id="linearGradient-22" node-id="63" spreadMethod="pad" x1="0.5" x2="0.5" y1="0" y2="1"><stop offset="0" stop-color="#fde8da"></stop><stop offset="1" stop-color="#fde8db"></stop></linearGradient><linearGradient gradientUnits="objectBoundingBox" id="linearGradient-23" node-id="66" spreadMethod="pad" x1="0.5" x2="0.5" y1="0" y2="1"><stop offset="0" stop-color="#f8c7a7"></stop><stop offset="1" stop-color="#fde8db"></stop></linearGradient><linearGradient gradientUnits="objectBoundingBox" id="linearGradient-24" node-id="69" spreadMethod="pad" x1="0.5" x2="0.5" y1="0" y2="1"><stop offset="0" stop-color="#fde8db"></stop><stop offset="1" stop-color="#fde8db"></stop></linearGradient><linearGradient gradientUnits="objectBoundingBox" id="linearGradient-25" node-id="72" spreadMethod="pad" x1="0.5" x2="0.5" y1="0" y2="1"><stop offset="0" stop-color="#fcd9c3"></stop><stop offset="1" stop-color="#fbc8af"></stop></linearGradient><linearGradient gradientUnits="objectBoundingBox" id="linearGradient-26" node-id="75" spreadMethod="pad" x1="0.5" x2="0.5" y1="0" y2="1"><stop offset="0" stop-color="#ed9966"></stop><stop offset="1" stop-color="#f2b188"></stop></linearGradient><linearGradient gradientUnits="objectBoundingBox" id="linearGradient-27" node-id="78" spreadMethod="pad" x1="0.5" x2="0.5" y1="0" y2="1"><stop offset="0" stop-color="#f9c5a5"></stop><stop offset="1" stop-color="#f4af84"></stop></linearGradient><linearGradient gradientUnits="objectBoundingBox" id="linearGradient-28" node-id="81" spreadMethod="pad" x1="0.5" x2="0.5694679" y1="0" y2="0.67387944"><stop offset="0" stop-color="#f3985e"></stop><stop offset="1" stop-color="#f9c4a4"></stop></linearGradient><clipPath id="mask-5" node-id="92"><path d="M 930.00 157.50 C 930.00 199.27 881.01 239.33 793.80 268.87 C 706.60 298.41 588.33 315.00 465.00 315.00 C 341.67 315.00 223.40 298.41 136.20 268.87 C 48.99 239.33 0.00 199.27 0.00 157.50 C 0.00 115.73 48.99 75.67 136.20 46.13 C 223.40 16.59 341.67 0.00 465.00 0.00 C 588.33 -0.00 706.60 16.59 793.80 46.13 C 881.01 75.67 930.00 115.73 930.00 157.50 Z" fill="#000000" fill-rule="evenodd" node-id="294" stroke="none" target-height="315" target-width="930" target-x="0" target-y="0"></path></clipPath><clipPath id="mask-5_3" node-id="92"><path d="M 983.00 759.50 L 982.75 764.63 L 982.01 769.73 L 980.79 774.84 L 979.06 779.97 L 976.80 785.14 L 973.98 790.37 L 970.26 796.12 L 965.82 801.92 L 960.61 807.79 L 954.56 813.74 L 947.60 819.77 L 940.69 825.14 L 933.02 830.54 L 924.53 835.96 L 915.17 841.41 L 904.87 846.88 L 892.27 852.97 L 878.45 859.00 L 863.32 864.98 L 846.80 870.87 L 830.47 876.14 L 813.25 881.18 L 795.10 885.98 L 775.98 890.54 L 757.05 894.59 L 737.41 898.36 L 717.05 901.84 L 695.95 905.01 L 675.00 907.75 L 653.56 910.16 L 631.61 912.23 L 609.14 913.95 L 586.78 915.27 L 564.14 916.22 L 541.22 916.80 L 518.00 917.00 L 494.78 916.80 L 471.86 916.22 L 449.22 915.27 L 426.86 913.95 L 404.39 912.23 L 382.44 910.16 L 361.00 907.75 L 340.05 905.01 L 318.95 901.84 L 298.59 898.36 L 278.95 894.59 L 260.02 890.54 L 240.90 885.98 L 222.75 881.18 L 205.53 876.14 L 189.20 870.87 L 172.68 864.98 L 157.55 859.00 L 143.73 852.97 L 131.13 846.88 L 120.83 841.41 L 111.47 835.96 L 102.98 830.54 L 95.31 825.14 L 88.40 819.77 L 81.44 813.74 L 75.39 807.79 L 70.18 801.92 L 65.74 796.12 L 62.02 790.37 L 59.20 785.14 L 56.94 779.97 L 55.21 774.84 L 53.99 769.73 L 53.25 764.63 L 53.00 759.50 L 53.25 754.37 L 53.99 749.27 L 55.21 744.16 L 56.94 739.03 L 59.20 733.86 L 62.02 728.63 L 65.74 722.88 L 70.18 717.08 L 75.39 711.21 L 81.44 705.26 L 88.40 699.23 L 95.31 693.86 L 102.98 688.46 L 111.47 683.04 L 120.83 677.59 L 131.13 672.12 L 143.73 666.03 L 157.55 660.00 L 172.68 654.02 L 189.20 648.13 L 205.53 642.86 L 222.75 637.82 L 240.90 633.02 L 260.02 628.46 L 278.95 624.41 L 298.59 620.64 L 318.95 617.16 L 340.05 613.99 L 361.00 611.25 L 382.44 608.84 L 404.39 606.77 L 426.86 605.05 L 449.22 603.73 L 471.86 602.78 L 494.78 602.20 L 518.00 602.00 L 541.22 602.20 L 564.14 602.78 L 586.78 603.73 L 609.14 605.05 L 631.61 606.77 L 653.56 608.84 L 675.00 611.25 L 695.95 613.99 L 717.05 617.16 L 737.41 620.64 L 757.05 624.41 L 775.98 628.46 L 795.10 633.02 L 813.25 637.82 L 830.47 642.86 L 846.80 648.13 L 863.32 654.02 L 878.45 660.00 L 892.27 666.03 L 904.87 672.12 L 915.17 677.59 L 924.53 683.04 L 933.02 688.46 L 940.69 693.86 L 947.60 699.23 L 954.56 705.26 L 960.61 711.21 L 965.82 717.08 L 970.26 722.88 L 973.98 728.63 L 976.80 733.86 L 979.06 739.03 L 980.79 744.16 L 982.01 749.27 L 982.75 754.37 L 983.00 759.50 Z" fill="#000000" fill-rule="evenodd" node-id="294" stroke="none" target-height="315" target-width="930" target-x="53" target-y="602"></path></clipPath><clipPath id="mask-5_4" node-id="92"><path d="M 1009.34 649.79 L 1011.44 645.11 L 1013.10 640.23 L 1014.33 635.12 L 1015.12 629.76 L 1015.46 624.13 L 1015.32 618.19 L 1014.61 611.38 L 1013.29 604.20 L 1011.31 596.60 L 1008.62 588.56 L 1005.16 580.02 L 1001.44 572.10 L 997.05 563.81 L 991.95 555.12 L 986.08 546.01 L 979.40 536.47 L 970.93 525.32 L 961.36 513.67 L 950.59 501.48 L 938.55 488.73 L 926.39 476.62 L 913.33 464.31 L 899.34 451.79 L 884.37 439.05 L 869.34 426.84 L 853.56 414.57 L 837.00 402.23 L 819.63 389.82 L 802.21 377.87 L 784.20 365.99 L 765.58 354.18 L 746.34 342.45 L 727.02 331.12 L 707.28 319.99 L 687.12 309.07 L 666.52 298.35 L 645.75 287.99 L 625.06 278.10 L 604.45 268.67 L 583.93 259.70 L 563.13 251.03 L 542.64 242.91 L 522.44 235.32 L 502.53 228.25 L 482.29 221.49 L 462.57 215.35 L 443.36 209.79 L 424.65 204.81 L 405.55 200.19 L 387.19 196.23 L 369.56 192.90 L 352.61 190.18 L 335.22 187.94 L 319.03 186.39 L 303.98 185.49 L 289.98 185.19 L 278.33 185.39 L 267.51 186.00 L 257.49 186.98 L 248.20 188.30 L 239.60 189.95 L 230.67 192.17 L 222.58 194.72 L 215.27 197.59 L 208.68 200.74 L 202.75 204.17 L 197.87 207.55 L 193.51 211.13 L 189.64 214.92 L 186.23 218.91 L 183.26 223.13 L 180.70 227.58 L 178.60 232.26 L 176.94 237.15 L 175.71 242.25 L 174.92 247.61 L 174.58 253.24 L 174.72 259.18 L 175.43 265.99 L 176.75 273.18 L 178.73 280.77 L 181.42 288.82 L 184.88 297.35 L 188.60 305.27 L 192.99 313.57 L 198.09 322.25 L 203.96 331.36 L 210.64 340.91 L 219.11 352.05 L 228.68 363.71 L 239.45 375.89 L 251.49 388.64 L 263.65 400.75 L 276.71 413.06 L 290.70 425.58 L 305.67 438.32 L 320.70 450.53 L 336.48 462.81 L 353.04 475.15 L 370.41 487.55 L 387.83 499.50 L 405.84 511.38 L 424.46 523.19 L 443.70 534.92 L 463.02 546.25 L 482.76 557.38 L 502.92 568.30 L 523.52 579.02 L 544.29 589.38 L 564.98 599.28 L 585.59 608.70 L 606.11 617.68 L 626.91 626.34 L 647.40 634.47 L 667.60 642.06 L 687.51 649.12 L 707.75 655.88 L 727.47 662.03 L 746.68 667.58 L 765.39 672.56 L 784.50 677.18 L 802.85 681.14 L 820.48 684.47 L 837.43 687.19 L 854.82 689.44 L 871.01 690.99 L 886.07 691.88 L 900.06 692.18 L 911.71 691.98 L 922.53 691.37 L 932.55 690.40 L 941.84 689.07 L 950.44 687.43 L 959.38 685.21 L 967.46 682.65 L 974.77 679.79 L 981.36 676.63 L 987.29 673.20 L 992.18 669.83 L 996.53 666.24 L 1000.40 662.46 L 1003.81 658.46 L 1006.79 654.25 L 1009.34 649.79 Z" fill="#000000" fill-rule="evenodd" node-id="294" stroke="none" target-height="506.99" target-width="840.88" target-x="174.58" target-y="185.19"></path></clipPath></defs><path d="M 0.00 0.00 L 1024.00 0.00 L 1024.00 1024.00 L 0.00 1024.00 Z" fill="#ffffff" fill-rule="evenodd" node-id="300" stroke="none" target-height="1024" target-width="1024" target-x="0" target-y="0"></path><g node-id="319"><g node-id="322"><path d="M 95.00 572.34 L 96.91 545.78 L 99.24 521.25 L 101.97 498.63 L 105.06 477.80 L 108.47 458.68 L 112.17 441.14 L 116.14 425.11 L 120.35 410.47 L 124.76 397.15 L 129.36 385.05 L 134.13 374.09 L 139.05 364.19 L 144.11 355.27 L 149.30 347.27 L 154.60 340.12 L 160.01 333.75 L 165.54 328.12 L 171.19 323.17 L 176.96 318.86 L 188.99 314.44 L 199.21 311.23 L 205.92 309.60 L 212.12 308.62 L 217.86 308.23 L 222.16 308.35 L 226.39 308.89 L 230.59 309.85 L 234.76 311.24 L 238.72 312.99 L 242.86 315.27 L 247.20 318.14 L 251.76 321.66 L 257.41 326.67 L 263.70 333.01 L 270.70 340.86 L 277.37 348.97 L 284.91 358.70 L 293.41 370.24 L 306.27 388.48 L 321.74 411.18 L 357.53 465.08 L 402.62 533.31" fill="url(#linearGradient-1)" fill-rule="evenodd" group-id="1,4" id="路径-160" node-id="88" stroke="none" target-height="264.11002" target-width="307.62" target-x="95" target-y="308.23"></path><path d="M 371.94 602.68 L 366.58 570.56 L 362.08 540.02 L 358.41 511.01 L 355.51 483.46 L 353.36 457.32 L 351.92 432.53 L 351.14 409.03 L 350.99 386.77 L 351.44 365.70 L 352.46 345.76 L 354.01 326.91 L 356.06 309.09 L 358.59 292.26 L 361.57 276.37 L 364.98 261.38 L 368.80 247.24 L 373.01 233.91 L 377.58 221.35 L 382.52 209.53 L 387.80 198.40 L 393.41 187.94 L 399.35 178.11 L 405.62 168.87 L 412.20 160.21 L 419.12 152.10 L 426.35 144.51 L 433.92 137.43 L 441.84 130.83 L 450.11 124.72 L 458.74 119.07 L 467.76 113.88 L 477.19 109.14 L 487.03 104.86 L 497.33 101.03 L 508.10 97.67 L 519.36 94.79 L 531.16 92.38 L 543.51 90.49 L 556.44 89.11 L 570.00 88.27 L 584.21 88.00 L 599.11 88.33 L 614.73 89.27 L 621.42 91.05 L 625.96 92.27 L 631.77 94.19 L 635.70 95.76 L 640.08 97.84 L 644.98 100.52 L 649.66 103.49 L 654.73 107.24 L 660.23 111.87 L 665.39 116.82 L 670.87 122.84 L 676.71 130.06 L 682.10 137.57 L 687.73 146.48 L 693.63 156.93 L 697.63 164.78 L 701.72 173.58 L 705.90 183.39 L 710.16 194.30 L 713.96 204.95 L 717.79 216.73 L 721.64 229.72 L 725.49 244.00 L 728.91 257.92 L 732.28 273.15 L 735.59 289.76 L 738.83 307.86 L 742.57 331.71 L 746.09 358.26 L 749.36 387.71 L 752.03 417.19 L 754.35 449.67 L 756.27 485.37 L 757.60 521.09 L 758.45 560.12 L 758.75 602.68" fill="url(#linearGradient-2)" fill-rule="evenodd" group-id="1,4" id="路径-161" node-id="89" stroke="none" target-height="514.68" target-width="407.76" target-x="350.99" target-y="88"></path><path d="M 709.37 568.09 L 709.71 540.43 L 710.60 514.92 L 711.99 491.43 L 713.84 469.85 L 716.12 450.07 L 718.78 431.97 L 721.78 415.45 L 725.09 400.42 L 728.68 386.76 L 732.51 374.39 L 736.57 363.21 L 740.83 353.15 L 745.27 344.11 L 749.87 336.02 L 754.62 328.82 L 759.52 322.42 L 764.55 316.77 L 769.72 311.83 L 775.03 307.53 L 780.50 303.84 L 786.14 300.72 L 791.96 298.16 L 798.00 296.14 L 804.27 294.65 L 810.81 293.70 L 817.65 293.29 L 824.83 293.46 L 832.38 294.23 L 840.33 295.63 L 848.74 297.73 L 857.63 300.56 L 867.05 304.19 L 870.31 306.18 L 873.65 308.92 L 877.09 312.51 L 880.65 317.10 L 884.32 322.85 L 888.12 329.92 L 892.03 338.51 L 896.05 348.82 L 900.17 361.07 L 904.36 375.49 L 908.61 392.33 L 912.90 411.85 L 917.21 434.32 L 921.52 460.02 L 925.79 489.26 L 930.00 522.35 L 934.13 559.60 L 938.14 601.37 L 942.00 648.00" fill="url(#linearGradient-3)" fill-rule="evenodd" group-id="1,4" id="路径-162" node-id="90" stroke="none" target-height="354.71" target-width="232.63" target-x="709.37" target-y="293.29"></path></g><g node-id="323"><g node-id="328"><path d="M 983.00 759.50 L 982.75 764.63 L 982.01 769.73 L 980.79 774.84 L 979.06 779.97 L 976.80 785.14 L 973.98 790.37 L 970.26 796.12 L 965.82 801.92 L 960.61 807.79 L 954.56 813.74 L 947.60 819.77 L 940.69 825.14 L 933.02 830.54 L 924.53 835.96 L 915.17 841.41 L 904.87 846.88 L 892.27 852.97 L 878.45 859.00 L 863.32 864.98 L 846.80 870.87 L 830.47 876.14 L 813.25 881.18 L 795.10 885.98 L 775.98 890.54 L 757.05 894.59 L 737.41 898.36 L 717.05 901.84 L 695.95 905.01 L 675.00 907.75 L 653.56 910.16 L 631.61 912.23 L 609.14 913.95 L 586.78 915.27 L 564.14 916.22 L 541.22 916.80 L 518.00 917.00 L 494.78 916.80 L 471.86 916.22 L 449.22 915.27 L 426.86 913.95 L 404.39 912.23 L 382.44 910.16 L 361.00 907.75 L 340.05 905.01 L 318.95 901.84 L 298.59 898.36 L 278.95 894.59 L 260.02 890.54 L 240.90 885.98 L 222.75 881.18 L 205.53 876.14 L 189.20 870.87 L 172.68 864.98 L 157.55 859.00 L 143.73 852.97 L 131.13 846.88 L 120.83 841.41 L 111.47 835.96 L 102.98 830.54 L 95.31 825.14 L 88.40 819.77 L 81.44 813.74 L 75.39 807.79 L 70.18 801.92 L 65.74 796.12 L 62.02 790.37 L 59.20 785.14 L 56.94 779.97 L 55.21 774.84 L 53.99 769.73 L 53.25 764.63 L 53.00 759.50 L 53.25 754.37 L 53.99 749.27 L 55.21 744.16 L 56.94 739.03 L 59.20 733.86 L 62.02 728.63 L 65.74 722.88 L 70.18 717.08 L 75.39 711.21 L 81.44 705.26 L 88.40 699.23 L 95.31 693.86 L 102.98 688.46 L 111.47 683.04 L 120.83 677.59 L 131.13 672.12 L 143.73 666.03 L 157.55 660.00 L 172.68 654.02 L 189.20 648.13 L 205.53 642.86 L 222.75 637.82 L 240.90 633.02 L 260.02 628.46 L 278.95 624.41 L 298.59 620.64 L 318.95 617.16 L 340.05 613.99 L 361.00 611.25 L 382.44 608.84 L 404.39 606.77 L 426.86 605.05 L 449.22 603.73 L 471.86 602.78 L 494.78 602.20 L 518.00 602.00 L 541.22 602.20 L 564.14 602.78 L 586.78 603.73 L 609.14 605.05 L 631.61 606.77 L 653.56 608.84 L 675.00 611.25 L 695.95 613.99 L 717.05 617.16 L 737.41 620.64 L 757.05 624.41 L 775.98 628.46 L 795.10 633.02 L 813.25 637.82 L 830.47 642.86 L 846.80 648.13 L 863.32 654.02 L 878.45 660.00 L 892.27 666.03 L 904.87 672.12 L 915.17 677.59 L 924.53 683.04 L 933.02 688.46 L 940.69 693.86 L 947.60 699.23 L 954.56 705.26 L 960.61 711.21 L 965.82 717.08 L 970.26 722.88 L 973.98 728.63 L 976.80 733.86 L 979.06 739.03 L 980.79 744.16 L 982.01 749.27 L 982.75 754.37 L 983.00 759.50 Z" fill="#fae3d4" fill-rule="evenodd" group-id="1,5,10" node-id="310" stroke="none" target-height="315" target-width="930" target-x="53" target-y="602"></path></g><g node-id="329"><g clip-path="url(#mask-5_3)" group-id="1,5,11" node-id="313"><path d="M 301.58 883.86 L 302.43 874.44 L 303.67 866.48 L 305.24 859.80 L 307.08 854.25 L 309.15 849.68 L 311.41 845.95 L 313.85 842.95 L 316.47 840.58 L 319.27 838.77 L 322.30 837.48 L 325.59 836.69 L 329.22 836.42 L 333.24 836.71 L 337.74 837.64 L 342.78 839.31 L 348.45 841.83 L 354.84 845.35 L 362.02 850.02 L 370.10 856.01 L 379.17 863.52 L 389.32 872.73 L 400.66 883.86 L 401.01 884.20 L 401.72 884.18 L 403.16 883.52 L 408.75 879.78 L 412.38 877.30 L 416.72 874.54 L 421.35 871.96 L 426.36 869.68 L 429.84 868.45 L 433.37 867.58 L 436.96 867.08 L 440.56 867.02 L 444.16 867.53 L 447.80 868.62 L 450.35 869.80 L 452.92 871.42 L 455.53 873.53 L 458.18 876.20 L 460.45 879.01 L 462.74 882.46 L 465.05 886.66 L 467.37 891.70 L 469.90 898.44 L 472.35 906.79 L 474.68 917.00 L 464.96 919.60 L 454.76 921.70 L 444.05 923.30 L 432.81 924.37 L 421.00 924.90 L 408.59 924.84 L 395.53 924.17 L 381.80 922.87 L 367.35 920.88 L 352.14 918.18 L 336.14 914.72 L 319.30 910.45 L 301.58 905.32 L 301.58 883.86 Z" fill="#f7ceb1" fill-rule="evenodd" group-id="1,5,11" id="路径-163" node-id="95" stroke="none" target-height="88.48004" target-width="173.1" target-x="301.58" target-y="836.42"></path></g></g><g clip-path="url(#mask-5_4)" group-id="1,5,12" node-id="317"><path d="M 768.36 627.01 L 767.33 633.55 L 767.00 639.27 L 767.27 644.27 L 768.06 648.65 L 769.32 652.49 L 771.04 655.87 L 773.20 658.85 L 775.84 661.47 L 779.01 663.76 L 782.77 665.70 L 787.21 667.29 L 792.44 668.49 L 798.58 669.22 L 805.75 669.43 L 814.10 669.01 L 823.77 667.88 L 834.93 665.90 L 847.74 662.96 L 862.38 658.93 L 862.82 658.79 L 863.40 659.12 L 864.30 660.37 L 867.33 666.23 L 869.29 670.09 L 871.76 674.55 L 874.57 678.98 L 877.89 683.36 L 880.37 686.08 L 883.08 688.52 L 886.03 690.69 L 889.21 692.47 L 892.68 693.77 L 896.48 694.59 L 899.35 694.81 L 902.45 694.66 L 905.84 694.10 L 909.54 693.09 L 912.98 691.77 L 916.76 689.91 L 920.92 687.42 L 925.51 684.21 L 925.56 683.94 L 925.03 683.28 L 923.02 681.79 L 919.65 679.72 L 914.21 676.71 L 908.08 673.56 L 900.33 669.80 L 892.06 666.00 L 882.63 661.88 L 872.85 657.84 L 862.38 653.77 L 839.92 646.08 L 821.44 640.21 L 804.16 635.18 L 790.46 631.61 L 777.83 628.76 L 768.36 627.01 Z" fill="#f7ceb1" fill-rule="evenodd" group-id="1,5,12" id="路径-163备份" node-id="96" stroke="none" target-height="67.79999" target-width="158.56" target-x="767" target-y="627.01"></path></g></g></g><g node-id="320"><g node-id="324"><g node-id="331"><path d="M 184.17 772.24 L 187.83 767.73 L 211.89 787.22 L 207.38 791.54 Z" fill="url(#linearGradient-6)" fill-rule="evenodd" group-id="2,6,13" id="矩形备份-23" node-id="99" stroke="none" target-height="23.809998" target-width="27.720001" target-x="184.17" target-y="767.73"></path></g><path d="M 212.50 706.00 L 214.29 706.25 L 215.82 706.89 L 217.15 707.93 L 218.19 709.26 L 218.83 710.79 L 219.08 712.58 L 219.07 712.93 L 214.98 791.05 L 214.67 791.73 L 213.98 792.00 L 208.07 792.00 L 207.37 791.71 L 207.07 791.02 L 205.69 712.93 L 205.92 711.08 L 206.55 709.48 L 207.60 708.08 L 208.96 706.99 L 210.53 706.30 L 212.38 706.00 L 212.50 706.00 Z" fill="url(#linearGradient-7)" fill-rule="evenodd" group-id="2,6" id="矩形" node-id="100" stroke="none" target-height="86" target-width="13.389999" target-x="205.69" target-y="706"></path><path d="M 212.27 767.23 L 206.70 767.62 L 202.11 767.40 L 198.35 766.69 L 195.28 765.55 L 192.78 764.04 L 190.76 762.15 L 189.17 759.86 L 187.98 757.11 L 187.05 750.03 L 186.47 740.37 L 186.37 727.56 L 186.60 726.11 L 187.13 724.86 L 187.98 723.78 L 189.07 722.94 L 190.33 722.43 L 191.78 722.22 L 193.20 722.42 L 194.42 722.93 L 195.48 723.76 L 196.30 724.82 L 196.81 726.03 L 197.01 727.45 L 197.01 727.52 L 196.93 744.71 L 197.08 752.15 L 197.66 753.69 L 198.79 755.52 L 200.27 757.22 L 202.17 758.73 L 203.59 759.51 L 205.13 760.02 L 206.80 760.27 L 208.48 760.17 L 210.28 759.66 L 212.27 758.64 L 212.17 759.68 L 212.27 767.23 Z" fill="url(#linearGradient-8)" fill-rule="evenodd" group-id="2,6,14" id="路径-168备份" node-id="101" stroke="none" target-height="45.400024" target-width="25.90001" target-x="186.37" target-y="722.22"></path><path d="M 211.72 757.70 L 216.63 758.53 L 220.71 758.67 L 224.10 758.23 L 226.92 757.29 L 229.28 755.89 L 231.25 754.02 L 232.87 751.63 L 234.15 748.61 L 234.87 743.29 L 235.24 737.31 L 235.19 730.60 L 234.69 723.09 L 234.38 721.74 L 233.80 720.60 L 232.95 719.62 L 231.90 718.87 L 230.71 718.40 L 229.34 718.22 L 228.06 718.40 L 226.96 718.86 L 226.00 719.61 L 225.26 720.57 L 224.80 721.67 L 224.61 722.95 L 224.61 723.02 L 224.70 736.29 L 224.53 743.38 L 224.03 744.98 L 223.24 746.69 L 222.16 748.24 L 220.78 749.52 L 219.70 750.13 L 218.45 750.49 L 216.99 750.59 L 215.54 750.37 L 213.81 749.75 L 211.72 748.61 L 211.83 749.72 L 211.72 757.70 Z" fill="url(#linearGradient-9)" fill-rule="evenodd" group-id="2,6" id="路径-168" node-id="102" stroke="none" target-height="40.450012" target-width="23.520004" target-x="211.72" target-y="718.22"></path></g><g node-id="325"><g node-id="333"><path d="M 749.11 636.60 L 751.76 633.50 L 769.27 646.91 L 765.98 649.89 Z" fill="url(#linearGradient-10)" fill-rule="evenodd" group-id="2,7,15" id="矩形备份-23" node-id="104" stroke="none" target-height="16.390015" target-width="20.160034" target-x="749.11" target-y="633.5"></path></g><path d="M 769.71 591.00 L 771.00 591.18 L 772.12 591.65 L 773.08 592.40 L 773.83 593.37 L 774.30 594.48 L 774.48 595.77 L 774.47 596.04 L 771.53 649.26 L 771.22 649.93 L 770.53 650.20 L 766.75 650.20 L 766.05 649.92 L 765.75 649.22 L 764.76 596.04 L 764.92 594.70 L 765.38 593.53 L 766.14 592.52 L 767.13 591.72 L 768.28 591.22 L 769.62 591.00 L 769.71 591.00 Z" fill="url(#linearGradient-11)" fill-rule="evenodd" group-id="2,7" id="矩形" node-id="105" stroke="none" target-height="59.200012" target-width="9.719971" target-x="764.76" target-y="591"></path><path d="M 769.54 633.15 L 764.94 633.42 L 761.26 633.15 L 758.34 632.45 L 756.04 631.40 L 754.24 630.02 L 752.87 628.29 L 751.88 626.18 L 751.20 621.35 L 750.78 614.77 L 750.70 606.05 L 751.03 604.53 L 751.87 603.30 L 753.11 602.48 L 754.64 602.17 L 756.13 602.47 L 757.33 603.28 L 758.14 604.48 L 758.44 605.97 L 758.44 606.02 L 758.38 617.70 L 758.49 622.77 L 758.91 623.82 L 759.73 625.09 L 760.81 626.26 L 762.19 627.30 L 763.77 628.03 L 765.57 628.36 L 767.43 628.15 L 769.54 627.24 L 769.47 627.96 L 769.54 633.15 Z" fill="url(#linearGradient-12)" fill-rule="evenodd" group-id="2,7,16" id="路径-168备份" node-id="106" stroke="none" target-height="31.25" target-width="18.839966" target-x="750.7" target-y="602.17"></path><path d="M 769.14 626.59 L 773.20 627.21 L 776.48 627.20 L 779.13 626.70 L 781.27 625.76 L 783.00 624.42 L 784.39 622.64 L 785.45 620.33 L 786.10 615.40 L 786.26 609.64 L 785.87 602.96 L 785.45 601.55 L 784.59 600.43 L 783.40 599.69 L 781.96 599.41 L 780.61 599.69 L 779.53 600.42 L 778.80 601.50 L 778.52 602.85 L 778.52 602.90 L 778.58 611.90 L 778.46 616.73 L 777.94 618.21 L 777.02 619.74 L 776.22 620.60 L 775.22 621.23 L 774.01 621.64 L 772.74 621.69 L 771.16 621.31 L 769.14 620.33 L 769.22 621.10 L 769.14 626.59 Z" fill="url(#linearGradient-13)" fill-rule="evenodd" group-id="2,7" id="路径-168" node-id="107" stroke="none" target-height="27.800049" target-width="17.119995" target-x="769.14" target-y="599.41"></path></g><g node-id="326"><g node-id="335"><path d="M 337.06 626.28 L 339.00 623.88 L 351.82 634.26 L 349.42 636.56 Z" fill="url(#linearGradient-14)" fill-rule="evenodd" group-id="2,8,17" id="矩形备份-23" node-id="109" stroke="none" target-height="12.679993" target-width="14.76001" target-x="337.06" target-y="623.88"></path></g><path d="M 352.14 591.00 L 353.52 591.28 L 354.62 592.03 L 355.37 593.13 L 355.65 594.51 L 355.64 594.69 L 353.49 635.86 L 353.18 636.53 L 352.49 636.80 L 350.24 636.80 L 349.54 636.52 L 349.24 635.82 L 348.52 594.69 L 348.78 593.27 L 349.53 592.11 L 350.66 591.32 L 352.08 591.00 L 352.14 591.00 Z" fill="url(#linearGradient-15)" fill-rule="evenodd" group-id="2,8" id="矩形" node-id="110" stroke="none" target-height="45.799988" target-width="7.130005" target-x="348.52" target-y="591"></path><path d="M 352.02 623.61 L 348.19 623.81 L 345.23 623.47 L 342.97 622.72 L 341.25 621.60 L 339.97 620.12 L 339.09 618.22 L 338.59 614.45 L 338.28 609.30 L 338.23 602.48 L 338.47 601.37 L 339.09 600.47 L 339.99 599.87 L 341.11 599.64 L 342.20 599.86 L 343.08 600.46 L 343.67 601.33 L 343.90 602.43 L 343.90 602.46 L 343.93 615.58 L 344.39 616.68 L 345.35 617.99 L 346.63 619.08 L 348.23 619.78 L 349.36 619.92 L 350.61 619.69 L 352.02 619.03 L 351.97 619.59 L 352.02 623.61 Z" fill="url(#linearGradient-16)" fill-rule="evenodd" group-id="2,8,18" id="路径-168备份" node-id="111" stroke="none" target-height="24.169983" target-width="13.789978" target-x="338.23" target-y="599.64"></path><path d="M 351.73 618.53 L 355.11 619.04 L 357.76 618.92 L 359.82 618.31 L 361.45 617.27 L 362.73 615.76 L 363.67 613.69 L 364.15 609.84 L 364.26 605.34 L 363.96 600.10 L 363.66 599.07 L 363.04 598.25 L 362.17 597.71 L 361.11 597.51 L 360.13 597.71 L 359.33 598.25 L 358.80 599.04 L 358.60 600.03 L 358.60 600.06 L 358.55 610.91 L 358.17 612.05 L 357.50 613.23 L 356.56 614.17 L 355.29 614.70 L 354.37 614.75 L 353.21 614.45 L 351.73 613.69 L 351.79 614.28 L 351.73 618.53 Z" fill="url(#linearGradient-17)" fill-rule="evenodd" group-id="2,8" id="路径-168" node-id="112" stroke="none" target-height="21.529968" target-width="12.529999" target-x="351.73" target-y="597.51"></path></g></g><path d="M 415.00 416.00 L 605.00 416.00 C 609.42 416.00 613.00 419.58 613.00 424.00 L 613.00 657.00 C 613.00 661.42 609.42 665.00 605.00 665.00 L 415.00 665.00 C 410.58 665.00 407.00 661.42 407.00 657.00 L 407.00 424.00 C 407.00 419.58 410.58 416.00 415.00 416.00 Z" fill="url(#linearGradient-18)" fill-rule="evenodd" id="矩形" node-id="113" stroke="none" target-height="249" target-width="206" target-x="407" target-y="416"></path><path d="M 415.00 416.00 L 604.59 416.00 C 609.01 416.00 612.59 419.58 612.59 424.00 C 612.59 424.13 612.59 424.27 612.58 424.40 L 611.91 437.66 L 611.91 437.66 L 407.00 433.00 L 407.00 424.00 C 407.00 419.58 410.58 416.00 415.00 416.00 Z" fill="#f0833b" fill-rule="evenodd" id="矩形" node-id="114" stroke="none" target-height="21.660004" target-width="205.59003" target-x="407" target-y="416"></path><path d="M 546.31 749.02 L 278.42 627.27 L 402.62 608.29 L 554.86 665.00 Z" fill="url(#linearGradient-19)" fill-rule="evenodd" id="路径-167备份" node-id="115" stroke="none" target-height="140.73004" target-width="276.43997" target-x="278.42" target-y="608.29"></path><path d="M 407.50 432.62 C 508.25 453.92 588.34 453.92 647.75 432.62 C 648.32 434.50 636.76 647.94 694.37 677.34 C 689.06 677.78 615.14 685.33 472.60 700.00 L 407.50 432.62 Z" fill="url(#linearGradient-20)" fill-rule="evenodd" id="路径-190" node-id="116" stroke="none" target-height="267.38" target-width="286.87" target-x="407.5" target-y="432.62"></path><path d="M 416.41 420.69 C 502.98 455.39 576.36 473.04 636.54 473.64 C 649.87 470.79 620.71 608.84 676.68 717.79 C 671.08 723.22 426.96 682.85 418.46 665.00 C 412.91 653.35 411.07 572.58 416.09 424.50 C 416.16 422.43 416.27 421.16 416.41 420.69 Z" fill="url(#linearGradient-21)" fill-rule="evenodd" id="路径-191" node-id="117" stroke="none" target-height="302.52997" target-width="265.61" target-x="411.07" target-y="420.69"></path><path d="M 412.41 420.69 C 498.98 455.39 572.36 473.04 632.54 473.64 C 645.87 470.79 616.71 608.84 672.68 717.79 C 667.08 723.22 422.96 682.85 414.46 665.00 C 408.91 653.35 407.07 572.58 412.09 424.50 C 412.16 422.43 412.27 421.16 412.41 420.69 Z" fill="url(#linearGradient-22)" fill-rule="evenodd" id="路径-191" node-id="118" stroke="none" target-height="302.52997" target-width="265.61" target-x="407.07" target-y="420.69"></path><path d="M 414.42 420.69 L 606.47 493.36 L 615.19 729.86 L 415.59 642.83 C 414.70 545.83 414.31 472.94 414.42 424.16 C 414.11 422.71 414.11 421.55 414.42 420.69 Z" fill="url(#linearGradient-23)" fill-rule="evenodd" id="路径-192" node-id="119" stroke="none" target-height="309.16998" target-width="201.08002" target-x="414.11" target-y="420.69"></path><path d="M 412.41 420.69 L 603.25 493.36 L 611.91 729.86 L 413.58 642.83 C 412.70 545.83 412.31 472.94 412.41 424.16 C 412.11 422.71 412.11 421.55 412.41 420.69 Z" fill="url(#linearGradient-24)" fill-rule="evenodd" id="路径-192" node-id="120" stroke="none" target-height="309.16998" target-width="199.79999" target-x="412.11" target-y="420.69"></path><path d="M 691.00 623.00 L 690.80 627.73 L 690.24 632.30 L 689.33 636.72 L 688.07 641.02 L 685.87 646.57 L 683.15 651.77 L 679.91 656.66 L 676.18 661.20 L 672.04 665.30 L 667.46 669.00 L 662.53 672.22 L 657.28 674.91 L 651.67 677.09 L 647.35 678.34 L 642.89 679.24 L 638.28 679.80 L 633.50 680.00 L 628.72 679.80 L 624.11 679.24 L 619.65 678.34 L 615.33 677.09 L 609.72 674.91 L 604.47 672.22 L 599.54 669.00 L 594.96 665.30 L 590.82 661.20 L 587.09 656.66 L 583.85 651.77 L 581.13 646.57 L 578.93 641.02 L 577.67 636.72 L 576.76 632.30 L 576.20 627.73 L 576.00 623.00 L 576.20 618.27 L 576.76 613.70 L 577.67 609.28 L 578.93 604.98 L 581.13 599.43 L 583.85 594.23 L 587.09 589.34 L 590.82 584.80 L 594.96 580.70 L 599.54 577.00 L 604.47 573.78 L 609.72 571.09 L 615.33 568.91 L 619.65 567.66 L 624.11 566.76 L 628.72 566.20 L 633.50 566.00 L 638.28 566.20 L 642.89 566.76 L 647.35 567.66 L 651.67 568.91 L 657.28 571.09 L 662.53 573.78 L 667.46 577.00 L 672.04 580.70 L 676.18 584.80 L 679.91 589.34 L 683.15 594.23 L 685.87 599.43 L 688.07 604.98 L 689.33 609.28 L 690.24 613.70 L 690.80 618.27 L 691.00 623.00 Z" fill="#e37a36" fill-rule="evenodd" group-id="3" id="椭圆形" node-id="122" stroke="none" target-height="114" target-width="115" target-x="576" target-y="566"></path><path d="M 694.00 623.00 L 693.80 627.73 L 693.24 632.30 L 692.33 636.72 L 691.07 641.02 L 688.87 646.57 L 686.15 651.77 L 682.91 656.66 L 679.18 661.20 L 675.04 665.30 L 670.46 669.00 L 665.53 672.22 L 660.28 674.91 L 654.67 677.09 L 650.35 678.34 L 645.89 679.24 L 641.28 679.80 L 636.50 680.00 L 631.72 679.80 L 627.11 679.24 L 622.65 678.34 L 618.33 677.09 L 612.72 674.91 L 607.47 672.22 L 602.54 669.00 L 597.96 665.30 L 593.82 661.20 L 590.09 656.66 L 586.85 651.77 L 584.13 646.57 L 581.93 641.02 L 580.67 636.72 L 579.76 632.30 L 579.20 627.73 L 579.00 623.00 L 579.20 618.27 L 579.76 613.70 L 580.67 609.28 L 581.93 604.98 L 584.13 599.43 L 586.85 594.23 L 590.09 589.34 L 593.82 584.80 L 597.96 580.70 L 602.54 577.00 L 607.47 573.78 L 612.72 571.09 L 618.33 568.91 L 622.65 567.66 L 627.11 566.76 L 631.72 566.20 L 636.50 566.00 L 641.28 566.20 L 645.89 566.76 L 650.35 567.66 L 654.67 568.91 L 660.28 571.09 L 665.53 573.78 L 670.46 577.00 L 675.04 580.70 L 679.18 584.80 L 682.91 589.34 L 686.15 594.23 L 688.87 599.43 L 691.07 604.98 L 692.33 609.28 L 693.24 613.70 L 693.80 618.27 L 694.00 623.00 Z" fill="url(#linearGradient-25)" fill-rule="evenodd" group-id="3" id="椭圆形" node-id="123" stroke="none" target-height="114" target-width="115" target-x="579" target-y="566"></path><path d="M 616.00 623.00 L 615.83 624.83 L 615.37 626.50 L 614.63 628.05 L 613.64 629.45 L 612.45 630.64 L 611.05 631.63 L 609.50 632.37 L 607.83 632.83 L 606.00 633.00 L 604.17 632.83 L 602.50 632.37 L 600.95 631.63 L 599.55 630.64 L 598.36 629.45 L 597.37 628.05 L 596.63 626.50 L 596.17 624.83 L 596.00 623.00 L 596.17 621.17 L 596.63 619.50 L 597.37 617.95 L 598.36 616.55 L 599.55 615.36 L 600.95 614.37 L 602.50 613.63 L 604.17 613.17 L 606.00 613.00 L 607.83 613.17 L 609.50 613.63 L 611.05 614.37 L 612.45 615.36 L 613.64 616.55 L 614.63 617.95 L 615.37 619.50 L 615.83 621.17 L 616.00 623.00 Z" fill="url(#linearGradient-26)" fill-rule="evenodd" group-id="3,9" id="椭圆形" node-id="125" stroke="none" target-height="20" target-width="20" target-x="596" target-y="613"></path><path d="M 645.00 623.00 L 644.83 624.83 L 644.37 626.50 L 643.63 628.05 L 642.64 629.45 L 641.45 630.64 L 640.05 631.63 L 638.50 632.37 L 636.83 632.83 L 635.00 633.00 L 633.17 632.83 L 631.50 632.37 L 629.95 631.63 L 628.55 630.64 L 627.36 629.45 L 626.37 628.05 L 625.63 626.50 L 625.17 624.83 L 625.00 623.00 L 625.17 621.17 L 625.63 619.50 L 626.37 617.95 L 627.36 616.55 L 628.55 615.36 L 629.95 614.37 L 631.50 613.63 L 633.17 613.17 L 635.00 613.00 L 636.83 613.17 L 638.50 613.63 L 640.05 614.37 L 641.45 615.36 L 642.64 616.55 L 643.63 617.95 L 644.37 619.50 L 644.83 621.17 L 645.00 623.00 Z" fill="url(#linearGradient-26)" fill-rule="evenodd" group-id="3,9" id="椭圆形备份" node-id="126" stroke="none" target-height="20" target-width="20" target-x="625" target-y="613"></path><path d="M 675.00 623.00 L 674.83 624.83 L 674.37 626.50 L 673.63 628.05 L 672.64 629.45 L 671.45 630.64 L 670.05 631.63 L 668.50 632.37 L 666.83 632.83 L 665.00 633.00 L 663.17 632.83 L 661.50 632.37 L 659.95 631.63 L 658.55 630.64 L 657.36 629.45 L 656.37 628.05 L 655.63 626.50 L 655.17 624.83 L 655.00 623.00 L 655.17 621.17 L 655.63 619.50 L 656.37 617.95 L 657.36 616.55 L 658.55 615.36 L 659.95 614.37 L 661.50 613.63 L 663.17 613.17 L 665.00 613.00 L 666.83 613.17 L 668.50 613.63 L 670.05 614.37 L 671.45 615.36 L 672.64 616.55 L 673.63 617.95 L 674.37 619.50 L 674.83 621.17 L 675.00 623.00 Z" fill="url(#linearGradient-26)" fill-rule="evenodd" group-id="3,9" id="椭圆形备份-2" node-id="127" stroke="none" target-height="20" target-width="20" target-x="655" target-y="613"></path><path d="M 415.83 431.52 L 561.37 493.88 C 564.44 495.20 566.37 498.28 566.21 501.61 L 554.84 742.71 C 554.63 747.12 550.88 750.53 546.47 750.32 C 545.16 750.26 543.89 749.88 542.77 749.21 L 408.60 669.66 C 406.17 668.22 404.68 665.61 404.68 662.78 L 404.68 438.88 C 404.68 434.46 408.26 430.88 412.68 430.88 C 413.77 430.88 414.84 431.10 415.83 431.52 Z" fill="url(#linearGradient-27)" fill-rule="evenodd" id="路径-189" node-id="128" stroke="none" target-height="319.65002" target-width="161.69" target-x="404.68" target-y="430.88"></path><path d="M 404.77 437.66 C 405.50 429.04 406.41 423.07 407.50 419.74 C 409.54 414.95 411.09 416.00 413.99 416.00 C 414.49 416.01 412.71 417.88 412.41 424.16 C 412.36 425.23 412.43 427.48 412.60 430.90 C 411.38 430.87 410.15 431.21 408.93 431.90 C 407.83 432.64 406.45 434.56 404.77 437.66 Z" fill="url(#linearGradient-28)" fill-rule="evenodd" id="路径-193" node-id="129" stroke="none" target-height="22.709991" target-width="9.720001" target-x="404.77" target-y="414.95"></path><path d="M 500.98 457.20 L 483.58 512.38 L 500.98 510.06 L 510.00 528.72 L 531.58 472.01 Z" fill="#f0833b" fill-rule="evenodd" id="路径-194" node-id="130" stroke="none" target-height="71.51996" target-width="48.00003" target-x="483.58" target-y="457.2"></path><path d="M 531.58 472.01 L 536.19 483.36 L 528.51 479.89 Z" fill="#dd6f25" fill-rule="evenodd" id="路径-195" node-id="131" stroke="none" target-height="11.349976" target-width="7.6799927" target-x="528.51" target-y="472.01"></path></svg>