<?xml version="1.0" standalone="no"?><!DOCTYPE svg PUBLIC "-//W3C//DTD SVG 1.1//EN" "http://www.w3.org/Graphics/SVG/1.1/DTD/svg11.dtd"><svg height="1024" node-id="1" sillyvg="true" template-height="1024" template-width="1024" version="1.1" viewBox="0 0 1024 1024" width="1024" xmlns="http://www.w3.org/2000/svg" xmlns:xlink="http://www.w3.org/1999/xlink"><defs node-id="140"><linearGradient gradientUnits="objectBoundingBox" id="linearGradient-1" node-id="5" spreadMethod="pad" x1="0.5" x2="0.5" y1="0" y2="1"><stop offset="0" stop-color="#fbeae0"></stop><stop offset="1" stop-color="#faf7f8" stop-opacity="0"></stop></linearGradient><linearGradient gradientUnits="objectBoundingBox" id="linearGradient-2" node-id="8" spreadMethod="pad" x1="0.5" x2="0.5" y1="0" y2="1"><stop offset="0" stop-color="#fbeae0"></stop><stop offset="1" stop-color="#fff0ec" stop-opacity="0.005018541"></stop></linearGradient><linearGradient gradientUnits="objectBoundingBox" id="linearGradient-3" node-id="11" spreadMethod="pad" x1="0.5" x2="0.5" y1="0" y2="1"><stop offset="0" stop-color="#fbebe2"></stop><stop offset="1" stop-color="#fcf6f3" stop-opacity="0"></stop></linearGradient><linearGradient gradientUnits="objectBoundingBox" id="linearGradient-6" node-id="15" spreadMethod="pad" x1="0.5" x2="0.5" y1="0" y2="1"><stop offset="0" stop-color="#f0cdb7" stop-opacity="0"></stop><stop offset="1" stop-color="#d16019"></stop></linearGradient><linearGradient gradientUnits="objectBoundingBox" id="linearGradient-7" node-id="18" spreadMethod="pad" x1="0.5" x2="0.5" y1="0" y2="1"><stop offset="0" stop-color="#e17a39"></stop><stop offset="1" stop-color="#f1813a"></stop></linearGradient><linearGradient gradientUnits="objectBoundingBox" id="linearGradient-8" node-id="21" spreadMethod="pad" x1="0.5" x2="0.5" y1="0.29011315" y2="1"><stop offset="0" stop-color="#f29d67"></stop><stop offset="1" stop-color="#ee813f"></stop></linearGradient><linearGradient gradientUnits="objectBoundingBox" id="linearGradient-9" node-id="24" spreadMethod="pad" x1="0.5" x2="0.5" y1="0.26552454" y2="1"><stop offset="0" stop-color="#f4a878"></stop><stop offset="1" stop-color="#f1965b"></stop></linearGradient><linearGradient gradientUnits="objectBoundingBox" id="linearGradient-10" node-id="27" spreadMethod="pad" x1="0.5" x2="0.5" y1="0" y2="1"><stop offset="0" stop-color="#f6b38a"></stop><stop offset="1" stop-color="#f3a776"></stop></linearGradient><linearGradient gradientUnits="objectBoundingBox" id="linearGradient-11" node-id="30" spreadMethod="pad" x1="0.5" x2="0.5" y1="0" y2="1"><stop offset="0" stop-color="#f0cdb7" stop-opacity="0"></stop><stop offset="1" stop-color="#d16019"></stop></linearGradient><linearGradient gradientUnits="objectBoundingBox" id="linearGradient-12" node-id="33" spreadMethod="pad" x1="0.5" x2="0.5" y1="0" y2="1"><stop offset="0" stop-color="#e17a39"></stop><stop offset="1" stop-color="#f1813a"></stop></linearGradient><linearGradient gradientUnits="objectBoundingBox" id="linearGradient-13" node-id="36" spreadMethod="pad" x1="0.5" x2="0.5" y1="0.29011315" y2="1"><stop offset="0" stop-color="#f29d67"></stop><stop offset="1" stop-color="#ee813f"></stop></linearGradient><linearGradient gradientUnits="objectBoundingBox" id="linearGradient-14" node-id="39" spreadMethod="pad" x1="0.5" x2="0.5" y1="0.26552454" y2="1"><stop offset="0" stop-color="#f4a878"></stop><stop offset="1" stop-color="#f1965b"></stop></linearGradient><linearGradient gradientUnits="objectBoundingBox" id="linearGradient-15" node-id="42" spreadMethod="pad" x1="0.5" x2="0.5" y1="0" y2="1"><stop offset="0" stop-color="#f6b38a"></stop><stop offset="1" stop-color="#f3a776"></stop></linearGradient><linearGradient gradientUnits="objectBoundingBox" id="linearGradient-16" node-id="45" spreadMethod="pad" x1="0.5" x2="0.5" y1="0" y2="1"><stop offset="0" stop-color="#f0cdb7" stop-opacity="0"></stop><stop offset="1" stop-color="#d16019"></stop></linearGradient><linearGradient gradientUnits="objectBoundingBox" id="linearGradient-17" node-id="48" spreadMethod="pad" x1="0.5" x2="0.5" y1="0" y2="1"><stop offset="0" stop-color="#e17a39"></stop><stop offset="1" stop-color="#f1813a"></stop></linearGradient><linearGradient gradientUnits="objectBoundingBox" id="linearGradient-18" node-id="51" spreadMethod="pad" x1="0.5" x2="0.5" y1="0.29011315" y2="1"><stop offset="0" stop-color="#f29d67"></stop><stop offset="1" stop-color="#ee813f"></stop></linearGradient><linearGradient gradientUnits="objectBoundingBox" id="linearGradient-19" node-id="54" spreadMethod="pad" x1="0.5" x2="0.5" y1="0.26552454" y2="1"><stop offset="0" stop-color="#f4a878"></stop><stop offset="1" stop-color="#f1965b"></stop></linearGradient><linearGradient gradientUnits="objectBoundingBox" id="linearGradient-20" node-id="57" spreadMethod="pad" x1="0.5" x2="0.5" y1="0" y2="1"><stop offset="0" stop-color="#f6b38a"></stop><stop offset="1" stop-color="#f3a776"></stop></linearGradient><linearGradient gradientUnits="objectBoundingBox" id="linearGradient-21" node-id="60" spreadMethod="pad" x1="0.22768387" x2="1" y1="0.33724895" y2="0.7572606"><stop offset="0" stop-color="#f0803e"></stop><stop offset="1" stop-color="#f9c6a7"></stop></linearGradient><linearGradient gradientUnits="objectBoundingBox" id="linearGradient-22" node-id="63" spreadMethod="pad" x1="0.16313137" x2="0.3978011" y1="0.44164237" y2="0.48497567"><stop offset="0" stop-color="#fbd6c0" stop-opacity="0"></stop><stop offset="1" stop-color="#f1ba99"></stop></linearGradient><linearGradient gradientUnits="objectBoundingBox" id="linearGradient-23" node-id="66" spreadMethod="pad" x1="0.5" x2="0.6651095" y1="0.26417914" y2="0.7105919"><stop offset="0" stop-color="#faccb0"></stop><stop offset="1" stop-color="#f4af83"></stop></linearGradient><linearGradient gradientUnits="objectBoundingBox" id="linearGradient-24" node-id="69" spreadMethod="pad" x1="0.2969829" x2="0.80151695" y1="0.32503617" y2="0.6646037"><stop offset="0" stop-color="#fce6d7"></stop><stop offset="1" stop-color="#f4b185"></stop></linearGradient><linearGradient gradientUnits="objectBoundingBox" id="linearGradient-25" node-id="72" spreadMethod="pad" x1="0.5" x2="0.5" y1="0" y2="1"><stop offset="0" stop-color="#fbd6bf"></stop><stop offset="1" stop-color="#f3b289"></stop></linearGradient><linearGradient gradientUnits="objectBoundingBox" id="linearGradient-26" node-id="75" spreadMethod="pad" x1="0.43462116" x2="0.5310174" y1="0.4766844" y2="0.56587076"><stop offset="0" stop-color="#fce6d7"></stop><stop offset="1" stop-color="#f0803e"></stop></linearGradient><linearGradient gradientUnits="objectBoundingBox" id="linearGradient-27" node-id="78" spreadMethod="pad" x1="0.11582309" x2="1" y1="0.5" y2="0.5"><stop offset="0" stop-color="#f0803e"></stop><stop offset="1" stop-color="#e35a09"></stop></linearGradient><clipPath id="mask-5" node-id="89"><path d="M 930.00 157.50 C 930.00 199.27 881.01 239.33 793.80 268.87 C 706.60 298.41 588.33 315.00 465.00 315.00 C 341.67 315.00 223.40 298.41 136.20 268.87 C 48.99 239.33 0.00 199.27 0.00 157.50 C 0.00 115.73 48.99 75.67 136.20 46.13 C 223.40 16.59 341.67 0.00 465.00 0.00 C 588.33 -0.00 706.60 16.59 793.80 46.13 C 881.01 75.67 930.00 115.73 930.00 157.50 Z" fill="#000000" fill-rule="evenodd" node-id="295" stroke="none" target-height="315" target-width="930" target-x="0" target-y="0"></path></clipPath><clipPath id="mask-5_3" node-id="89"><path d="M 983.00 759.50 L 982.75 764.63 L 982.01 769.73 L 980.79 774.84 L 979.06 779.97 L 976.80 785.14 L 973.98 790.37 L 970.26 796.12 L 965.82 801.92 L 960.61 807.79 L 954.56 813.74 L 947.60 819.77 L 940.69 825.14 L 933.02 830.54 L 924.53 835.96 L 915.17 841.41 L 904.87 846.88 L 892.27 852.97 L 878.45 859.00 L 863.32 864.98 L 846.80 870.87 L 830.47 876.14 L 813.25 881.18 L 795.10 885.98 L 775.98 890.54 L 757.05 894.59 L 737.41 898.36 L 717.05 901.84 L 695.95 905.01 L 675.00 907.75 L 653.56 910.16 L 631.61 912.23 L 609.14 913.95 L 586.78 915.27 L 564.14 916.22 L 541.22 916.80 L 518.00 917.00 L 494.78 916.80 L 471.86 916.22 L 449.22 915.27 L 426.86 913.95 L 404.39 912.23 L 382.44 910.16 L 361.00 907.75 L 340.05 905.01 L 318.95 901.84 L 298.59 898.36 L 278.95 894.59 L 260.02 890.54 L 240.90 885.98 L 222.75 881.18 L 205.53 876.14 L 189.20 870.87 L 172.68 864.98 L 157.55 859.00 L 143.73 852.97 L 131.13 846.88 L 120.83 841.41 L 111.47 835.96 L 102.98 830.54 L 95.31 825.14 L 88.40 819.77 L 81.44 813.74 L 75.39 807.79 L 70.18 801.92 L 65.74 796.12 L 62.02 790.37 L 59.20 785.14 L 56.94 779.97 L 55.21 774.84 L 53.99 769.73 L 53.25 764.63 L 53.00 759.50 L 53.25 754.37 L 53.99 749.27 L 55.21 744.16 L 56.94 739.03 L 59.20 733.86 L 62.02 728.63 L 65.74 722.88 L 70.18 717.08 L 75.39 711.21 L 81.44 705.26 L 88.40 699.23 L 95.31 693.86 L 102.98 688.46 L 111.47 683.04 L 120.83 677.59 L 131.13 672.12 L 143.73 666.03 L 157.55 660.00 L 172.68 654.02 L 189.20 648.13 L 205.53 642.86 L 222.75 637.82 L 240.90 633.02 L 260.02 628.46 L 278.95 624.41 L 298.59 620.64 L 318.95 617.16 L 340.05 613.99 L 361.00 611.25 L 382.44 608.84 L 404.39 606.77 L 426.86 605.05 L 449.22 603.73 L 471.86 602.78 L 494.78 602.20 L 518.00 602.00 L 541.22 602.20 L 564.14 602.78 L 586.78 603.73 L 609.14 605.05 L 631.61 606.77 L 653.56 608.84 L 675.00 611.25 L 695.95 613.99 L 717.05 617.16 L 737.41 620.64 L 757.05 624.41 L 775.98 628.46 L 795.10 633.02 L 813.25 637.82 L 830.47 642.86 L 846.80 648.13 L 863.32 654.02 L 878.45 660.00 L 892.27 666.03 L 904.87 672.12 L 915.17 677.59 L 924.53 683.04 L 933.02 688.46 L 940.69 693.86 L 947.60 699.23 L 954.56 705.26 L 960.61 711.21 L 965.82 717.08 L 970.26 722.88 L 973.98 728.63 L 976.80 733.86 L 979.06 739.03 L 980.79 744.16 L 982.01 749.27 L 982.75 754.37 L 983.00 759.50 Z" fill="#000000" fill-rule="evenodd" node-id="295" stroke="none" target-height="315" target-width="930" target-x="53" target-y="602"></path></clipPath><clipPath id="mask-5_4" node-id="89"><path d="M 1009.34 649.79 L 1011.44 645.11 L 1013.10 640.23 L 1014.33 635.12 L 1015.12 629.76 L 1015.46 624.13 L 1015.32 618.19 L 1014.61 611.38 L 1013.29 604.20 L 1011.31 596.60 L 1008.62 588.56 L 1005.16 580.02 L 1001.44 572.10 L 997.05 563.81 L 991.95 555.12 L 986.08 546.01 L 979.40 536.47 L 970.93 525.32 L 961.36 513.67 L 950.59 501.48 L 938.55 488.73 L 926.39 476.62 L 913.33 464.31 L 899.34 451.79 L 884.37 439.05 L 869.34 426.84 L 853.56 414.57 L 837.00 402.23 L 819.63 389.82 L 802.21 377.87 L 784.20 365.99 L 765.58 354.18 L 746.34 342.45 L 727.02 331.12 L 707.28 319.99 L 687.12 309.07 L 666.52 298.35 L 645.75 287.99 L 625.06 278.10 L 604.45 268.67 L 583.93 259.70 L 563.13 251.03 L 542.64 242.91 L 522.44 235.32 L 502.53 228.25 L 482.29 221.49 L 462.57 215.35 L 443.36 209.79 L 424.65 204.81 L 405.55 200.19 L 387.19 196.23 L 369.56 192.90 L 352.61 190.18 L 335.22 187.94 L 319.03 186.39 L 303.98 185.49 L 289.98 185.19 L 278.33 185.39 L 267.51 186.00 L 257.49 186.98 L 248.20 188.30 L 239.60 189.95 L 230.67 192.17 L 222.58 194.72 L 215.27 197.59 L 208.68 200.74 L 202.75 204.17 L 197.87 207.55 L 193.51 211.13 L 189.64 214.92 L 186.23 218.91 L 183.26 223.13 L 180.70 227.58 L 178.60 232.26 L 176.94 237.15 L 175.71 242.25 L 174.92 247.61 L 174.58 253.24 L 174.72 259.18 L 175.43 265.99 L 176.75 273.18 L 178.73 280.77 L 181.42 288.82 L 184.88 297.35 L 188.60 305.27 L 192.99 313.57 L 198.09 322.25 L 203.96 331.36 L 210.64 340.91 L 219.11 352.05 L 228.68 363.71 L 239.45 375.89 L 251.49 388.64 L 263.65 400.75 L 276.71 413.06 L 290.70 425.58 L 305.67 438.32 L 320.70 450.53 L 336.48 462.81 L 353.04 475.15 L 370.41 487.55 L 387.83 499.50 L 405.84 511.38 L 424.46 523.19 L 443.70 534.92 L 463.02 546.25 L 482.76 557.38 L 502.92 568.30 L 523.52 579.02 L 544.29 589.38 L 564.98 599.28 L 585.59 608.70 L 606.11 617.68 L 626.91 626.34 L 647.40 634.47 L 667.60 642.06 L 687.51 649.12 L 707.75 655.88 L 727.47 662.03 L 746.68 667.58 L 765.39 672.56 L 784.50 677.18 L 802.85 681.14 L 820.48 684.47 L 837.43 687.19 L 854.82 689.44 L 871.01 690.99 L 886.07 691.88 L 900.06 692.18 L 911.71 691.98 L 922.53 691.37 L 932.55 690.40 L 941.84 689.07 L 950.44 687.43 L 959.38 685.21 L 967.46 682.65 L 974.77 679.79 L 981.36 676.63 L 987.29 673.20 L 992.18 669.83 L 996.53 666.24 L 1000.40 662.46 L 1003.81 658.46 L 1006.79 654.25 L 1009.34 649.79 Z" fill="#000000" fill-rule="evenodd" node-id="295" stroke="none" target-height="506.99" target-width="840.88" target-x="174.58" target-y="185.19"></path></clipPath></defs><path d="M 0.00 0.00 L 1024.00 0.00 L 1024.00 1024.00 L 0.00 1024.00 Z" fill="#ffffff" fill-rule="evenodd" node-id="301" stroke="none" target-height="1024" target-width="1024" target-x="0" target-y="0"></path><g node-id="320"><g node-id="324"><path d="M 95.00 572.34 L 96.91 545.78 L 99.24 521.25 L 101.97 498.63 L 105.06 477.80 L 108.47 458.68 L 112.17 441.14 L 116.14 425.11 L 120.35 410.47 L 124.76 397.15 L 129.36 385.05 L 134.13 374.09 L 139.05 364.19 L 144.11 355.27 L 149.30 347.27 L 154.60 340.12 L 160.01 333.75 L 165.54 328.12 L 171.19 323.17 L 176.96 318.86 L 188.99 314.44 L 199.21 311.23 L 205.92 309.60 L 212.12 308.62 L 217.86 308.23 L 222.16 308.35 L 226.39 308.89 L 230.59 309.85 L 234.76 311.24 L 238.72 312.99 L 242.86 315.27 L 247.20 318.14 L 251.76 321.66 L 257.41 326.67 L 263.70 333.01 L 270.70 340.86 L 277.37 348.97 L 284.91 358.70 L 293.41 370.24 L 306.27 388.48 L 321.74 411.18 L 357.53 465.08 L 402.62 533.31" fill="url(#linearGradient-1)" fill-rule="evenodd" group-id="1,5" id="路径-160" node-id="85" stroke="none" target-height="264.11002" target-width="307.62" target-x="95" target-y="308.23"></path><path d="M 371.94 602.68 L 366.58 570.56 L 362.08 540.02 L 358.41 511.01 L 355.51 483.46 L 353.36 457.32 L 351.92 432.53 L 351.14 409.03 L 350.99 386.77 L 351.44 365.70 L 352.46 345.76 L 354.01 326.91 L 356.06 309.09 L 358.59 292.26 L 361.57 276.37 L 364.98 261.38 L 368.80 247.24 L 373.01 233.91 L 377.58 221.35 L 382.52 209.53 L 387.80 198.40 L 393.41 187.94 L 399.35 178.11 L 405.62 168.87 L 412.20 160.21 L 419.12 152.10 L 426.35 144.51 L 433.92 137.43 L 441.84 130.83 L 450.11 124.72 L 458.74 119.07 L 467.76 113.88 L 477.19 109.14 L 487.03 104.86 L 497.33 101.03 L 508.10 97.67 L 519.36 94.79 L 531.16 92.38 L 543.51 90.49 L 556.44 89.11 L 570.00 88.27 L 584.21 88.00 L 599.11 88.33 L 614.73 89.27 L 621.42 91.05 L 625.96 92.27 L 631.77 94.19 L 635.70 95.76 L 640.08 97.84 L 644.98 100.52 L 649.66 103.49 L 654.73 107.24 L 660.23 111.87 L 665.39 116.82 L 670.87 122.84 L 676.71 130.06 L 682.10 137.57 L 687.73 146.48 L 693.63 156.93 L 697.63 164.78 L 701.72 173.58 L 705.90 183.39 L 710.16 194.30 L 713.96 204.95 L 717.79 216.73 L 721.64 229.72 L 725.49 244.00 L 728.91 257.92 L 732.28 273.15 L 735.59 289.76 L 738.83 307.86 L 742.57 331.71 L 746.09 358.26 L 749.36 387.71 L 752.03 417.19 L 754.35 449.67 L 756.27 485.37 L 757.60 521.09 L 758.45 560.12 L 758.75 602.68" fill="url(#linearGradient-2)" fill-rule="evenodd" group-id="1,5" id="路径-161" node-id="86" stroke="none" target-height="514.68" target-width="407.76" target-x="350.99" target-y="88"></path><path d="M 709.37 568.09 L 709.71 540.43 L 710.60 514.92 L 711.99 491.43 L 713.84 469.85 L 716.12 450.07 L 718.78 431.97 L 721.78 415.45 L 725.09 400.42 L 728.68 386.76 L 732.51 374.39 L 736.57 363.21 L 740.83 353.15 L 745.27 344.11 L 749.87 336.02 L 754.62 328.82 L 759.52 322.42 L 764.55 316.77 L 769.72 311.83 L 775.03 307.53 L 780.50 303.84 L 786.14 300.72 L 791.96 298.16 L 798.00 296.14 L 804.27 294.65 L 810.81 293.70 L 817.65 293.29 L 824.83 293.46 L 832.38 294.23 L 840.33 295.63 L 848.74 297.73 L 857.63 300.56 L 867.05 304.19 L 870.31 306.18 L 873.65 308.92 L 877.09 312.51 L 880.65 317.10 L 884.32 322.85 L 888.12 329.92 L 892.03 338.51 L 896.05 348.82 L 900.17 361.07 L 904.36 375.49 L 908.61 392.33 L 912.90 411.85 L 917.21 434.32 L 921.52 460.02 L 925.79 489.26 L 930.00 522.35 L 934.13 559.60 L 938.14 601.37 L 942.00 648.00" fill="url(#linearGradient-3)" fill-rule="evenodd" group-id="1,5" id="路径-162" node-id="87" stroke="none" target-height="354.71" target-width="232.63" target-x="709.37" target-y="293.29"></path></g><g node-id="325"><g node-id="336"><path d="M 983.00 759.50 L 982.75 764.63 L 982.01 769.73 L 980.79 774.84 L 979.06 779.97 L 976.80 785.14 L 973.98 790.37 L 970.26 796.12 L 965.82 801.92 L 960.61 807.79 L 954.56 813.74 L 947.60 819.77 L 940.69 825.14 L 933.02 830.54 L 924.53 835.96 L 915.17 841.41 L 904.87 846.88 L 892.27 852.97 L 878.45 859.00 L 863.32 864.98 L 846.80 870.87 L 830.47 876.14 L 813.25 881.18 L 795.10 885.98 L 775.98 890.54 L 757.05 894.59 L 737.41 898.36 L 717.05 901.84 L 695.95 905.01 L 675.00 907.75 L 653.56 910.16 L 631.61 912.23 L 609.14 913.95 L 586.78 915.27 L 564.14 916.22 L 541.22 916.80 L 518.00 917.00 L 494.78 916.80 L 471.86 916.22 L 449.22 915.27 L 426.86 913.95 L 404.39 912.23 L 382.44 910.16 L 361.00 907.75 L 340.05 905.01 L 318.95 901.84 L 298.59 898.36 L 278.95 894.59 L 260.02 890.54 L 240.90 885.98 L 222.75 881.18 L 205.53 876.14 L 189.20 870.87 L 172.68 864.98 L 157.55 859.00 L 143.73 852.97 L 131.13 846.88 L 120.83 841.41 L 111.47 835.96 L 102.98 830.54 L 95.31 825.14 L 88.40 819.77 L 81.44 813.74 L 75.39 807.79 L 70.18 801.92 L 65.74 796.12 L 62.02 790.37 L 59.20 785.14 L 56.94 779.97 L 55.21 774.84 L 53.99 769.73 L 53.25 764.63 L 53.00 759.50 L 53.25 754.37 L 53.99 749.27 L 55.21 744.16 L 56.94 739.03 L 59.20 733.86 L 62.02 728.63 L 65.74 722.88 L 70.18 717.08 L 75.39 711.21 L 81.44 705.26 L 88.40 699.23 L 95.31 693.86 L 102.98 688.46 L 111.47 683.04 L 120.83 677.59 L 131.13 672.12 L 143.73 666.03 L 157.55 660.00 L 172.68 654.02 L 189.20 648.13 L 205.53 642.86 L 222.75 637.82 L 240.90 633.02 L 260.02 628.46 L 278.95 624.41 L 298.59 620.64 L 318.95 617.16 L 340.05 613.99 L 361.00 611.25 L 382.44 608.84 L 404.39 606.77 L 426.86 605.05 L 449.22 603.73 L 471.86 602.78 L 494.78 602.20 L 518.00 602.00 L 541.22 602.20 L 564.14 602.78 L 586.78 603.73 L 609.14 605.05 L 631.61 606.77 L 653.56 608.84 L 675.00 611.25 L 695.95 613.99 L 717.05 617.16 L 737.41 620.64 L 757.05 624.41 L 775.98 628.46 L 795.10 633.02 L 813.25 637.82 L 830.47 642.86 L 846.80 648.13 L 863.32 654.02 L 878.45 660.00 L 892.27 666.03 L 904.87 672.12 L 915.17 677.59 L 924.53 683.04 L 933.02 688.46 L 940.69 693.86 L 947.60 699.23 L 954.56 705.26 L 960.61 711.21 L 965.82 717.08 L 970.26 722.88 L 973.98 728.63 L 976.80 733.86 L 979.06 739.03 L 980.79 744.16 L 982.01 749.27 L 982.75 754.37 L 983.00 759.50 Z" fill="#fae3d4" fill-rule="evenodd" group-id="1,6,17" node-id="311" stroke="none" target-height="315" target-width="930" target-x="53" target-y="602"></path></g><g node-id="337"><g clip-path="url(#mask-5_3)" group-id="1,6,18" node-id="314"><path d="M 301.58 883.86 L 302.43 874.44 L 303.67 866.48 L 305.24 859.80 L 307.08 854.25 L 309.15 849.68 L 311.41 845.95 L 313.85 842.95 L 316.47 840.58 L 319.27 838.77 L 322.30 837.48 L 325.59 836.69 L 329.22 836.42 L 333.24 836.71 L 337.74 837.64 L 342.78 839.31 L 348.45 841.83 L 354.84 845.35 L 362.02 850.02 L 370.10 856.01 L 379.17 863.52 L 389.32 872.73 L 400.66 883.86 L 401.01 884.20 L 401.72 884.18 L 403.16 883.52 L 408.75 879.78 L 412.38 877.30 L 416.72 874.54 L 421.35 871.96 L 426.36 869.68 L 429.84 868.45 L 433.37 867.58 L 436.96 867.08 L 440.56 867.02 L 444.16 867.53 L 447.80 868.62 L 450.35 869.80 L 452.92 871.42 L 455.53 873.53 L 458.18 876.20 L 460.45 879.01 L 462.74 882.46 L 465.05 886.66 L 467.37 891.70 L 469.90 898.44 L 472.35 906.79 L 474.68 917.00 L 464.96 919.60 L 454.76 921.70 L 444.05 923.30 L 432.81 924.37 L 421.00 924.90 L 408.59 924.84 L 395.53 924.17 L 381.80 922.87 L 367.35 920.88 L 352.14 918.18 L 336.14 914.72 L 319.30 910.45 L 301.58 905.32 L 301.58 883.86 Z" fill="#f7ceb1" fill-rule="evenodd" group-id="1,6,18" id="路径-163" node-id="92" stroke="none" target-height="88.48004" target-width="173.1" target-x="301.58" target-y="836.42"></path></g></g><g clip-path="url(#mask-5_4)" group-id="1,6,19" node-id="318"><path d="M 768.36 627.01 L 767.33 633.55 L 767.00 639.27 L 767.27 644.27 L 768.06 648.65 L 769.32 652.49 L 771.04 655.87 L 773.20 658.85 L 775.84 661.47 L 779.01 663.76 L 782.77 665.70 L 787.21 667.29 L 792.44 668.49 L 798.58 669.22 L 805.75 669.43 L 814.10 669.01 L 823.77 667.88 L 834.93 665.90 L 847.74 662.96 L 862.38 658.93 L 862.82 658.79 L 863.40 659.12 L 864.30 660.37 L 867.33 666.23 L 869.29 670.09 L 871.76 674.55 L 874.57 678.98 L 877.89 683.36 L 880.37 686.08 L 883.08 688.52 L 886.03 690.69 L 889.21 692.47 L 892.68 693.77 L 896.48 694.59 L 899.35 694.81 L 902.45 694.66 L 905.84 694.10 L 909.54 693.09 L 912.98 691.77 L 916.76 689.91 L 920.92 687.42 L 925.51 684.21 L 925.56 683.94 L 925.03 683.28 L 923.02 681.79 L 919.65 679.72 L 914.21 676.71 L 908.08 673.56 L 900.33 669.80 L 892.06 666.00 L 882.63 661.88 L 872.85 657.84 L 862.38 653.77 L 839.92 646.08 L 821.44 640.21 L 804.16 635.18 L 790.46 631.61 L 777.83 628.76 L 768.36 627.01 Z" fill="#f7ceb1" fill-rule="evenodd" group-id="1,6,19" id="路径-163备份" node-id="93" stroke="none" target-height="67.79999" target-width="158.56" target-x="767" target-y="627.01"></path></g></g></g><g node-id="321"><g node-id="326"><g node-id="339"><path d="M 180.17 779.24 L 183.83 774.73 L 207.89 794.22 L 204.24 798.73 Z" fill="url(#linearGradient-6)" fill-rule="evenodd" group-id="2,7,20" id="矩形备份-23" node-id="96" stroke="none" target-height="24" target-width="27.720001" target-x="180.17" target-y="774.73"></path></g><path d="M 203.00 768.00 L 209.00 768.00 L 209.00 799.00 L 203.00 799.00 Z" fill="url(#linearGradient-7)" fill-rule="evenodd" group-id="2,7" id="矩形" node-id="97" stroke="none" target-height="31" target-width="6" target-x="203" target-y="768"></path><path d="M 252.00 751.00 L 251.77 753.10 L 251.12 755.15 L 250.04 757.16 L 248.46 759.17 L 245.98 761.49 L 242.81 763.72 L 238.82 765.85 L 234.64 767.57 L 229.90 769.08 L 224.52 770.35 L 219.07 771.24 L 213.24 771.80 L 207.00 772.00 L 200.76 771.80 L 194.93 771.24 L 189.48 770.35 L 184.10 769.08 L 179.36 767.57 L 175.18 765.85 L 171.19 763.72 L 168.02 761.49 L 165.54 759.17 L 163.96 757.16 L 162.88 755.15 L 162.23 753.10 L 162.00 751.00 L 162.23 748.90 L 162.88 746.85 L 163.96 744.84 L 165.54 742.83 L 168.02 740.51 L 171.19 738.28 L 175.18 736.15 L 179.36 734.43 L 184.10 732.92 L 189.48 731.65 L 194.93 730.76 L 200.76 730.20 L 207.00 730.00 L 213.24 730.20 L 219.07 730.76 L 224.52 731.65 L 229.90 732.92 L 234.64 734.43 L 238.82 736.15 L 242.81 738.28 L 245.98 740.51 L 248.46 742.83 L 250.04 744.84 L 251.12 746.85 L 251.77 748.90 L 252.00 751.00 Z" fill="url(#linearGradient-8)" fill-rule="evenodd" group-id="2,7,21" id="椭圆形备份-7" node-id="99" stroke="none" target-height="42" target-width="90" target-x="162" target-y="730"></path><path d="M 240.00 736.50 L 239.71 738.27 L 238.86 740.01 L 237.37 741.75 L 235.54 743.23 L 233.18 744.67 L 230.19 746.05 L 225.38 747.65 L 219.54 748.94 L 213.36 749.72 L 206.50 750.00 L 199.64 749.72 L 193.46 748.94 L 187.62 747.65 L 182.81 746.05 L 179.82 744.67 L 177.46 743.23 L 175.63 741.75 L 174.14 740.01 L 173.29 738.27 L 173.00 736.50 L 173.29 734.73 L 174.14 732.99 L 175.63 731.25 L 177.46 729.77 L 179.82 728.33 L 182.81 726.95 L 187.62 725.35 L 193.46 724.06 L 199.64 723.28 L 206.50 723.00 L 213.36 723.28 L 219.54 724.06 L 225.38 725.35 L 230.19 726.95 L 233.18 728.33 L 235.54 729.77 L 237.37 731.25 L 238.86 732.99 L 239.71 734.73 L 240.00 736.50 Z" fill="url(#linearGradient-9)" fill-rule="evenodd" group-id="2,7,21" id="椭圆形" node-id="100" stroke="none" target-height="27" target-width="67" target-x="173" target-y="723"></path><path d="M 217.73 703.82 L 234.75 724.15 L 235.62 725.55 L 236.07 726.99 L 236.13 728.53 L 235.80 730.03 L 235.10 731.38 L 234.00 732.60 L 232.82 733.37 L 231.55 733.83 L 230.15 734.00 L 183.85 734.00 L 182.22 733.77 L 180.82 733.19 L 179.61 732.24 L 178.66 731.03 L 178.08 729.63 L 177.85 728.00 L 178.01 726.60 L 178.48 725.33 L 179.25 724.15 L 196.27 703.82 L 198.09 702.02 L 200.08 700.63 L 202.27 699.63 L 204.59 699.02 L 206.94 698.81 L 209.34 699.00 L 211.67 699.60 L 213.88 700.62 L 215.99 702.07 L 217.73 703.82 Z" fill="url(#linearGradient-10)" fill-rule="evenodd" group-id="2,7,21" id="三角形" node-id="101" stroke="none" target-height="35.190002" target-width="58.28" target-x="177.85" target-y="698.81"></path></g><g node-id="327"><g node-id="341"><path d="M 757.74 638.58 L 760.70 634.91 L 780.23 650.72 L 777.26 654.38 Z" fill="url(#linearGradient-11)" fill-rule="evenodd" group-id="2,8,22" id="矩形备份-23" node-id="103" stroke="none" target-height="19.470032" target-width="22.48999" target-x="757.74" target-y="634.91"></path></g><path d="M 776.26 629.46 L 781.12 629.46 L 781.12 654.60 L 776.26 654.60 Z" fill="url(#linearGradient-12)" fill-rule="evenodd" group-id="2,8" id="矩形" node-id="104" stroke="none" target-height="25.139954" target-width="4.8599854" target-x="776.26" target-y="629.46"></path><path d="M 816.00 615.67 L 815.67 617.93 L 814.74 620.12 L 813.13 622.30 L 811.12 624.18 L 808.54 625.99 L 805.31 627.71 L 801.92 629.11 L 798.07 630.33 L 793.71 631.36 L 789.29 632.08 L 784.56 632.53 L 779.50 632.70 L 774.44 632.53 L 769.71 632.08 L 765.29 631.36 L 760.93 630.33 L 757.08 629.11 L 753.69 627.71 L 750.46 625.99 L 747.88 624.18 L 745.87 622.30 L 744.26 620.12 L 743.33 617.93 L 743.00 615.67 L 743.33 613.40 L 744.26 611.21 L 745.87 609.04 L 747.88 607.15 L 750.46 605.35 L 753.69 603.62 L 757.08 602.22 L 760.93 601.00 L 765.29 599.97 L 769.71 599.25 L 774.44 598.80 L 779.50 598.63 L 784.56 598.80 L 789.29 599.25 L 793.71 599.97 L 798.07 601.00 L 801.92 602.22 L 805.31 603.62 L 808.54 605.35 L 811.12 607.15 L 813.13 609.04 L 814.74 611.21 L 815.67 613.40 L 816.00 615.67 Z" fill="url(#linearGradient-13)" fill-rule="evenodd" group-id="2,8,23" id="椭圆形备份-7" node-id="106" stroke="none" target-height="34.070007" target-width="73" target-x="743" target-y="598.63"></path><path d="M 806.27 603.91 L 806.03 605.31 L 805.39 606.68 L 804.27 608.05 L 802.56 609.43 L 800.05 610.88 L 796.84 612.20 L 792.81 613.36 L 788.70 614.15 L 784.15 614.66 L 779.09 614.86 L 774.04 614.66 L 769.49 614.15 L 765.38 613.36 L 761.35 612.20 L 758.14 610.88 L 755.63 609.43 L 753.92 608.05 L 752.80 606.68 L 752.16 605.31 L 751.92 603.91 L 752.16 602.50 L 752.80 601.13 L 753.92 599.77 L 755.63 598.38 L 758.14 596.93 L 761.35 595.61 L 765.38 594.45 L 769.49 593.66 L 774.04 593.15 L 779.09 592.96 L 784.15 593.15 L 788.70 593.66 L 792.81 594.45 L 796.84 595.61 L 800.05 596.93 L 802.56 598.38 L 804.27 599.77 L 805.39 601.13 L 806.03 602.50 L 806.27 603.91 Z" fill="url(#linearGradient-14)" fill-rule="evenodd" group-id="2,8,23" id="椭圆形" node-id="107" stroke="none" target-height="21.899963" target-width="54.350037" target-x="751.92" target-y="592.96"></path><path d="M 790.23 579.82 L 800.45 592.03 L 801.32 593.42 L 801.77 594.87 L 801.83 596.41 L 801.50 597.91 L 800.80 599.26 L 799.70 600.48 L 798.52 601.25 L 797.25 601.71 L 795.85 601.88 L 763.15 601.88 L 761.52 601.65 L 760.12 601.06 L 758.91 600.12 L 757.96 598.90 L 757.38 597.51 L 757.15 595.88 L 757.31 594.48 L 757.78 593.21 L 758.55 592.03 L 768.77 579.82 L 770.59 578.02 L 772.58 576.63 L 774.77 575.63 L 777.10 575.02 L 779.44 574.81 L 781.84 575.00 L 784.17 575.60 L 786.38 576.62 L 788.49 578.07 L 790.23 579.82 Z" fill="url(#linearGradient-15)" fill-rule="evenodd" group-id="2,8,23" id="三角形" node-id="108" stroke="none" target-height="27.070007" target-width="44.679993" target-x="757.15" target-y="574.81"></path></g><g node-id="328"><g node-id="343"><path d="M 237.10 647.02 L 239.13 644.52 L 252.50 655.34 L 250.47 657.85 Z" fill="url(#linearGradient-16)" fill-rule="evenodd" group-id="2,9,24" id="矩形备份-23" node-id="110" stroke="none" target-height="13.329956" target-width="15.399994" target-x="237.1" target-y="644.52"></path></g><path d="M 249.78 640.78 L 253.11 640.78 L 253.11 658.00 L 249.78 658.00 Z" fill="url(#linearGradient-17)" fill-rule="evenodd" group-id="2,9" id="矩形" node-id="111" stroke="none" target-height="17.21997" target-width="3.3300018" target-x="249.78" target-y="640.78"></path><path d="M 277.00 631.33 L 276.77 632.86 L 276.17 634.33 L 275.13 635.78 L 273.59 637.22 L 271.26 638.77 L 268.30 640.18 L 264.62 641.41 L 260.83 642.25 L 256.64 642.80 L 252.00 643.00 L 247.36 642.80 L 243.17 642.25 L 239.38 641.41 L 235.70 640.18 L 232.74 638.77 L 230.41 637.22 L 228.87 635.78 L 227.83 634.33 L 227.23 632.86 L 227.00 631.33 L 227.23 629.81 L 227.83 628.34 L 228.87 626.89 L 230.41 625.44 L 232.74 623.89 L 235.70 622.49 L 239.38 621.26 L 243.17 620.41 L 247.36 619.87 L 252.00 619.67 L 256.64 619.87 L 260.83 620.41 L 264.62 621.26 L 268.30 622.49 L 271.26 623.89 L 273.59 625.44 L 275.13 626.89 L 276.17 628.34 L 276.77 629.81 L 277.00 631.33 Z" fill="url(#linearGradient-18)" fill-rule="evenodd" group-id="2,9,25" id="椭圆形备份-7" node-id="113" stroke="none" target-height="23.330017" target-width="50" target-x="227" target-y="619.67"></path><path d="M 270.33 623.28 L 270.06 624.56 L 269.26 625.80 L 267.79 627.06 L 266.07 628.05 L 263.88 628.96 L 261.12 629.75 L 256.78 630.50 L 251.72 630.78 L 246.66 630.50 L 242.33 629.75 L 239.57 628.96 L 237.37 628.05 L 235.65 627.06 L 234.19 625.80 L 233.39 624.56 L 233.11 623.28 L 233.39 622.00 L 234.19 620.76 L 235.65 619.49 L 237.37 618.50 L 239.57 617.60 L 242.33 616.80 L 246.66 616.06 L 251.72 615.78 L 256.78 616.06 L 261.12 616.80 L 263.88 617.60 L 266.07 618.50 L 267.79 619.49 L 269.26 620.76 L 270.06 622.00 L 270.33 623.28 Z" fill="url(#linearGradient-19)" fill-rule="evenodd" group-id="2,9,25" id="椭圆形" node-id="114" stroke="none" target-height="15" target-width="37.219986" target-x="233.11" target-y="615.78"></path><path d="M 262.00 609.94 L 263.75 612.04 L 264.62 613.43 L 265.07 614.88 L 265.13 616.42 L 264.80 617.92 L 264.10 619.27 L 263.00 620.49 L 261.82 621.26 L 260.55 621.72 L 259.15 621.89 L 244.85 621.89 L 243.22 621.66 L 241.82 621.08 L 240.61 620.13 L 239.66 618.91 L 239.08 617.52 L 238.85 615.89 L 239.01 614.49 L 239.48 613.22 L 240.25 612.04 L 242.00 609.94 L 243.70 608.26 L 245.55 606.97 L 247.59 606.04 L 249.76 605.47 L 251.95 605.28 L 254.18 605.46 L 256.35 606.01 L 258.40 606.96 L 260.37 608.32 L 262.00 609.94 Z" fill="url(#linearGradient-20)" fill-rule="evenodd" group-id="2,9,25" id="三角形" node-id="115" stroke="none" target-height="16.609985" target-width="26.279999" target-x="238.85" target-y="605.28"></path></g></g><path d="M 374.52 528.74 L 361.85 517.80 L 407.07 480.64 L 423.46 490.45" fill="none" id="路径-201" node-id="116" stroke="url(#linearGradient-21)" stroke-linecap="butt" stroke-width="9" target-height="48.099976" target-width="61.609985" target-x="361.85" target-y="480.64"></path><path d="M 559.48 736.20 L 300.52 631.22 L 409.14 615.68 L 689.88 642.03 Z" fill="url(#linearGradient-22)" fill-rule="evenodd" id="路径-167备份" node-id="117" stroke="none" target-height="120.52002" target-width="389.36002" target-x="300.52" target-y="615.68"></path><path d="M 319.78 566.04 L 434.96 475.65 L 436.40 474.75 L 437.91 474.19 L 439.52 473.95 L 441.14 474.04 L 442.70 474.45 L 444.22 475.21 L 688.56 631.87 L 690.21 633.27 L 691.37 634.97 L 692.06 636.90 L 692.24 638.94 L 691.89 640.96 L 690.98 642.92 L 690.07 644.09 L 688.96 645.07 L 566.05 734.88 L 564.61 735.72 L 563.11 736.23 L 561.53 736.42 L 559.93 736.30 L 558.41 735.87 L 556.93 735.10 L 320.31 579.01 L 318.68 577.59 L 317.54 575.88 L 316.88 573.94 L 316.73 571.90 L 317.10 569.88 L 318.04 567.93 L 318.83 566.91 L 319.78 566.04 Z" fill="#f0803e" fill-rule="evenodd" group-id="3" id="路径-196" node-id="119" stroke="none" target-height="262.46997" target-width="375.50998" target-x="316.73" target-y="473.95"></path><path d="M 317.22 569.53 L 323.23 553.98 L 326.54 562.63 L 321.93 569.88 Z" fill="#f0803e" fill-rule="evenodd" group-id="3" id="路径-199" node-id="120" stroke="none" target-height="15.900024" target-width="9.320007" target-x="317.22" target-y="553.98"></path><path d="M 326.06 549.43 L 439.16 460.67 L 440.60 459.77 L 442.11 459.21 L 443.72 458.97 L 445.34 459.06 L 446.90 459.47 L 448.42 460.23 L 688.56 614.20 L 690.21 615.60 L 691.37 617.30 L 692.06 619.23 L 692.24 621.26 L 691.89 623.29 L 690.98 625.25 L 690.07 626.42 L 688.96 627.39 L 568.27 715.59 L 566.83 716.43 L 565.33 716.93 L 563.75 717.13 L 562.15 717.01 L 560.63 716.57 L 559.15 715.81 L 326.59 562.40 L 324.96 560.98 L 323.82 559.26 L 323.16 557.33 L 323.01 555.29 L 323.38 553.26 L 324.32 551.31 L 325.11 550.30 L 326.06 549.43 Z" fill="url(#linearGradient-23)" fill-rule="evenodd" group-id="3" id="路径-196" node-id="121" stroke="none" target-height="258.16" target-width="369.22998" target-x="323.01" target-y="458.97"></path><path d="M 692.18 621.97 L 692.26 638.99 L 685.51 629.92 L 688.06 627.29 L 692.18 621.97 Z" fill="#f0803e" fill-rule="evenodd" group-id="3" id="路径-202" node-id="122" stroke="none" target-height="17.02002" target-width="6.75" target-x="685.51" target-y="621.97"></path><path d="M 335.12 553.98 L 448.68 463.23 L 478.79 473.17 L 506.16 482.81 L 530.97 492.15 L 553.38 501.20 L 573.55 509.95 L 591.64 518.42 L 607.79 526.61 L 622.14 534.52 L 634.84 542.15 L 646.00 549.52 L 655.76 556.64 L 664.22 563.50 L 671.51 570.13 L 677.73 576.53 L 682.97 582.72 L 687.32 588.72 L 690.86 594.55 L 693.65 600.22 L 695.76 605.78 L 697.24 611.23 L 698.11 616.62 L 698.39 621.97 L 694.92 626.37 L 690.82 630.98 L 686.04 635.84 L 678.44 642.84 L 669.85 650.05 L 660.84 657.04 L 651.37 663.93 L 641.72 670.56 L 632.17 676.79 L 622.65 682.72 L 613.79 687.97 L 605.18 692.84 L 597.80 696.80 L 590.87 700.27 L 585.75 702.59 L 581.24 704.27 L 579.19 704.67 L 576.25 704.50 L 571.72 703.89 L 566.81 702.93 L 560.88 701.45 L 554.79 699.59 L 548.24 697.19 L 541.77 694.35 L 535.39 690.97 L 531.29 688.42 L 527.46 685.64 L 523.89 682.63 L 518.99 678.57 L 508.38 670.65 L 488.90 656.88 L 456.67 634.82 L 407.15 601.62 L 335.12 553.98 Z" fill="url(#linearGradient-24)" fill-rule="evenodd" group-id="3" id="路径-203" node-id="123" stroke="none" target-height="241.43997" target-width="363.27002" target-x="335.12" target-y="463.23"></path><path d="M 403.12 566.43 L 476.78 487.44 L 487.23 497.19 L 414.90 575.25 Z" fill="#fde7d8" fill-rule="evenodd" group-id="3,10" id="矩形" node-id="124" stroke="none" target-height="87.81" target-width="84.110016" target-x="403.12" target-y="487.44"></path><path d="M 454.12 603.43 L 527.78 524.44 L 538.23 534.19 L 465.27 612.60 Z" fill="#fde7d8" fill-rule="evenodd" group-id="3,11" id="矩形备份-2" node-id="125" stroke="none" target-height="88.15997" target-width="84.109985" target-x="454.12" target-y="524.44"></path><path d="M 420.92 579.74 L 477.01 520.75 L 487.46 530.50 L 431.94 588.60 Z" fill="#fde7d8" fill-rule="evenodd" group-id="3,12" id="矩形备份" node-id="126" stroke="none" target-height="67.849976" target-width="66.53998" target-x="420.92" target-y="520.75"></path><path d="M 471.66 617.40 L 528.01 557.75 L 538.46 567.50 L 482.50 626.24 Z" fill="#fde7d8" fill-rule="evenodd" group-id="3,13" id="矩形备份-3" node-id="127" stroke="none" target-height="68.48999" target-width="66.80002" target-x="471.66" target-y="557.75"></path><path d="M 642.00 610.00 L 641.74 612.17 L 641.04 614.17 L 639.88 616.06 L 638.38 617.71 L 636.54 619.14 L 634.32 620.36 L 631.95 621.24 L 629.35 621.79 L 626.50 622.00 L 623.65 621.79 L 621.05 621.24 L 618.68 620.36 L 616.46 619.14 L 614.62 617.71 L 613.12 616.06 L 611.96 614.17 L 611.26 612.17 L 611.00 610.00 L 611.26 607.83 L 611.96 605.83 L 613.12 603.94 L 614.62 602.29 L 616.46 600.86 L 618.68 599.64 L 621.05 598.76 L 623.65 598.21 L 626.50 598.00 L 629.35 598.21 L 631.95 598.76 L 634.32 599.64 L 636.54 600.86 L 638.38 602.29 L 639.88 603.94 L 641.04 605.83 L 641.74 607.83 L 642.00 610.00 Z" fill="#f0803e" fill-opacity="0.25861105" fill-rule="evenodd" group-id="3,14" id="椭圆形" node-id="128" stroke="none" target-height="24" target-width="31" target-x="611" target-y="598"></path><path d="M 520.14 678.65 L 529.68 675.41 L 537.68 672.17 L 544.31 668.92 L 549.74 665.70 L 554.13 662.51 L 557.62 659.35 L 560.32 656.22 L 562.34 653.10 L 563.11 651.74 L 563.94 650.66 L 564.99 649.88 L 566.45 649.45 L 568.19 649.46 L 570.87 650.06 L 573.86 651.13 L 578.19 653.10 L 581.84 655.27 L 586.14 658.46 L 595.25 666.01 L 600.13 669.94 L 605.16 673.61 L 608.65 675.83 L 612.11 677.66 L 615.54 679.12 L 619.09 680.15 L 622.58 680.57 L 626.05 680.42 L 625.78 680.72 L 623.56 682.40 L 616.77 686.99 L 607.25 692.86 L 601.97 695.85 L 596.60 698.65 L 591.22 701.15 L 586.38 703.04 L 583.13 704.01 L 580.43 704.53 L 578.19 704.67 L 569.75 703.53 L 561.90 701.92 L 554.59 699.86 L 547.78 697.38 L 541.44 694.47 L 535.54 691.14 L 530.03 687.40 L 524.91 683.24 L 520.14 678.65 Z" fill="url(#linearGradient-25)" fill-rule="evenodd" group-id="3" id="路径-204" node-id="129" stroke="none" target-height="55.21997" target-width="105.90997" target-x="520.14" target-y="649.45"></path><path d="M 584.21 378.34 L 538.10 427.00" fill="none" id="路径-177" node-id="130" stroke="#e37732" stroke-dasharray="3 3" stroke-linecap="butt" stroke-width="3" target-height="48.660004" target-width="46.110046" target-x="538.1" target-y="378.34"></path><path d="M 614.37 378.34 L 553.89 439.00" fill="none" id="路径-178" node-id="131" stroke="#e37732" stroke-dasharray="3 3" stroke-linecap="butt" stroke-width="3" target-height="60.660004" target-width="60.47998" target-x="553.89" target-y="378.34"></path><path d="M 643.88 378.34 L 584.21 439.00" fill="none" id="路径-179" node-id="132" stroke="#e37732" stroke-dasharray="3 3" stroke-linecap="butt" stroke-width="3" target-height="60.660004" target-width="59.669983" target-x="584.21" target-y="378.34"></path><path d="M 669.46 479.09 L 666.28 477.66 L 663.59 475.84 L 661.31 473.62 L 659.44 471.04 L 658.07 468.27 L 657.18 465.27 L 656.82 462.17 L 657.02 459.04 L 657.79 455.85 L 659.14 452.86 L 660.90 450.31 L 663.06 448.16 L 665.58 446.42 L 668.33 445.15 L 671.36 444.34 L 674.49 444.06 L 677.72 444.33 L 681.10 445.18 L 684.28 446.60 L 686.94 448.39 L 689.15 450.56 L 690.96 453.08 L 692.26 455.79 L 693.09 458.74 L 693.40 461.79 L 693.17 464.89 L 692.38 468.08 L 691.04 471.08 L 689.32 473.66 L 687.21 475.86 L 684.75 477.66 L 682.06 478.98 L 679.10 479.84 L 676.03 480.16 L 672.83 479.92 L 669.46 479.09 Z" fill="#f39a65" fill-rule="evenodd" group-id="4,15" id="椭圆形" node-id="134" stroke="none" target-height="36.100006" target-width="36.580017" target-x="656.82" target-y="444.06"></path><path d="M 689.88 473.54 L 653.18 590.90 L 630.27 606.00 L 620.88 577.99 L 655.38 462.00 Z" fill="url(#linearGradient-26)" fill-rule="evenodd" group-id="4" id="路径-53" node-id="135" stroke="none" target-height="144" target-width="69" target-x="620.88" target-y="462"></path><path d="M 691.75 469.78 L 657.48 456.75 L 655.08 463.03 L 689.34 476.06 Z" fill="url(#linearGradient-27)" fill-rule="evenodd" group-id="4,16" id="矩形" node-id="136" stroke="none" target-height="19.309998" target-width="36.669983" target-x="655.08" target-y="456.75"></path><path d="M 652.88 590.90 L 630.08 581.43 L 622.42 578.43 L 621.00 578.00 L 620.88 578.31 L 621.33 580.50 L 623.73 587.98 L 630.27 606.00 L 652.88 590.90 Z" fill="#fbc7c6" fill-rule="evenodd" group-id="4" id="路径-54" node-id="137" stroke="none" target-height="28" target-width="32" target-x="620.88" target-y="578"></path><path d="M 630.34 606.00 L 633.88 603.66 L 628.88 602.00 Z" fill="#f16463" fill-rule="evenodd" group-id="4" id="路径-55" node-id="138" stroke="none" target-height="4" target-width="5" target-x="628.88" target-y="602"></path></svg>